<svg xmlns="http://www.w3.org/2000/svg" width="29" height="30" viewBox="0 0 29 30">
  <g id="billed_knap" data-name="billed knap" transform="translate(-46.867 -715.867)">
    <g id="Ellipse_28" data-name="Ellipse 28" transform="translate(46.867 715.867)" fill="#eee" stroke="#1b3243" stroke-width="1">
      <ellipse cx="14.5" cy="15" rx="14.5" ry="15" stroke="none"/>
      <ellipse cx="14.5" cy="15" rx="14" ry="14.5" fill="none"/>
    </g>
    <g id="_72109600716313443204150" data-name="72109600716313443204150" transform="translate(51.867 721.867)">
      <path id="Path_42" data-name="Path 42" d="M20.531,2.5H4.354a1.929,1.929,0,0,0-1.31.506A1.671,1.671,0,0,0,2.5,4.226V19.288a1.671,1.671,0,0,0,.544,1.219,1.929,1.929,0,0,0,1.31.506H20.531a1.929,1.929,0,0,0,1.31-.506,1.671,1.671,0,0,0,.544-1.219V4.226a1.671,1.671,0,0,0-.544-1.219,1.929,1.929,0,0,0-1.31-.506ZM4.354,3.441H20.531a.875.875,0,0,1,.6.23.758.758,0,0,1,.247.555V16.411l-4.213-3.926a.531.531,0,0,0-.715,0l-2.791,2.6L8.7,10.48a.505.505,0,0,0-.164-.1.536.536,0,0,0-.387,0,.505.505,0,0,0-.164.1L3.511,14.65V4.226a.758.758,0,0,1,.247-.555.875.875,0,0,1,.6-.23ZM3.511,19.288V15.981l4.836-4.5,9.231,8.595H4.354a.875.875,0,0,1-.6-.23.758.758,0,0,1-.247-.555Zm17.02.784H19.008l-4.641-4.321L16.8,13.483l4.574,4.258v1.547a.758.758,0,0,1-.247.555.875.875,0,0,1-.6.23Z" transform="translate(-2.5 -2.5)" fill="#1b3243" stroke="#1b3243" stroke-width="0.2"/>
      <path id="Path_43" data-name="Path 43" d="M28.32,15.1a2.394,2.394,0,1,0-1.689-.7,2.39,2.39,0,0,0,1.689.7Zm0-3.787a1.4,1.4,0,1,1-.535.106,1.4,1.4,0,0,1,.535-.106Z" transform="translate(-18.982 -8.208)" fill="#1b3243" stroke="#1b3243" stroke-width="0.2"/>
    </g>
  </g>
</svg>
