<svg xmlns="http://www.w3.org/2000/svg" width="30" height="30" viewBox="0 0 30 30">
  <g id="Chat_icon" data-name="Chat icon" transform="translate(-441 -108)">
    <g id="Group_63" data-name="Group 63" transform="translate(441 108)">
      <g id="Ellipse_4" data-name="Ellipse 4" fill="none" stroke="#f2f1ed" stroke-width="2">
        <circle cx="15" cy="15" r="15" stroke="none"/>
        <circle cx="15" cy="15" r="14" fill="none"/>
      </g>
    </g>
    <g id="_5723337741605806465" data-name="5723337741605806465" transform="translate(447.183 114.183)">
      <path id="Path_16" data-name="Path 16" d="M2.567,0h8.876a2.637,2.637,0,0,1,1.813.711,2.35,2.35,0,0,1,.754,1.712v5.4a2.35,2.35,0,0,1-.754,1.712,2.637,2.637,0,0,1-1.813.711H7l-3.9,3.163a.449.449,0,0,1-.609-.045.391.391,0,0,1-.1-.292L2.6,10.249H2.567A2.637,2.637,0,0,1,.754,9.537,2.344,2.344,0,0,1,0,7.827v-5.4A2.35,2.35,0,0,1,.754.711,2.632,2.632,0,0,1,2.567,0Zm12.7,3.942a2.568,2.568,0,0,1,1.3.655,2.3,2.3,0,0,1,.739,1.676v5.4a2.3,2.3,0,0,1-.739,1.676,2.584,2.584,0,0,1-1.776.7h-.091l.212,2.879h0a.343.343,0,0,1-.09.256.394.394,0,0,1-.534.039l-3.913-3.268H5.225l2.539-2.437h5.379a2.083,2.083,0,0,0,2.134-2.014V4.1c0-.054,0-.107-.007-.159ZM3.833,6.153a.409.409,0,1,1,0-.817h4.53a.409.409,0,1,1,0,.817Zm0-2.023a.409.409,0,1,1,0-.817h6.421a.409.409,0,1,1,0,.817ZM11.442.817H2.567a1.748,1.748,0,0,0-1.2.472,1.555,1.555,0,0,0-.5,1.134v5.4a1.557,1.557,0,0,0,.5,1.134,1.748,1.748,0,0,0,1.2.472h.527a.417.417,0,0,1,.4.434L3.327,12.16,6.542,9.551a.442.442,0,0,1,.3-.118h4.6a1.748,1.748,0,0,0,1.2-.472,1.557,1.557,0,0,0,.5-1.134v-5.4a1.557,1.557,0,0,0-.5-1.134,1.742,1.742,0,0,0-1.2-.472Z" transform="translate(0 0)" fill="#f2f1ed" stroke="#f2f1ed" stroke-width="0.5"/>
    </g>
  </g>
</svg>
