<svg id="Icons" xmlns="http://www.w3.org/2000/svg" width="15" height="15" viewBox="0 0 15 15">
  <g id="Rounded">
    <g id="Action">
      <g id="_-Round-_-Action-_-assessment" data-name="-Round-/-Action-/-assessment" transform="translate(0)">
        <g id="Group_95" data-name="Group 95">
          <path id="_Icon-Color" data-name="🔹Icon-Color" d="M16.333,3H4.667A1.672,1.672,0,0,0,3,4.667V16.333A1.672,1.672,0,0,0,4.667,18H16.333A1.672,1.672,0,0,0,18,16.333V4.667A1.672,1.672,0,0,0,16.333,3ZM7.167,14.667a.836.836,0,0,1-.833-.833V9.667A.833.833,0,0,1,8,9.667v4.167A.836.836,0,0,1,7.167,14.667Zm3.333,0a.836.836,0,0,1-.833-.833V7.167a.833.833,0,1,1,1.667,0v6.667A.836.836,0,0,1,10.5,14.667Zm3.333,0A.836.836,0,0,1,13,13.833V12.167a.833.833,0,1,1,1.667,0v1.667A.836.836,0,0,1,13.833,14.667Z" transform="translate(-3 -3)" fill="#1b3243" fill-rule="evenodd"/>
        </g>
      </g>
    </g>
  </g>
</svg>
