<svg xmlns="http://www.w3.org/2000/svg" width="30" height="30" viewBox="0 0 30 30">
  <g id="Document" transform="translate(-15 -713)">
    <g id="Ellipse_29" data-name="Ellipse 29" transform="translate(15 713)" fill="#eee" stroke="#1b3243" stroke-width="1">
      <circle cx="15" cy="15" r="15" stroke="none"/>
      <circle cx="15" cy="15" r="14.5" fill="none"/>
    </g>
    <g id="_706955771543238882" data-name="706955771543238882" transform="translate(19.283 717.604)">
      <path id="Path_44" data-name="Path 44" d="M12.4,2H5.679A1.679,1.679,0,0,0,4,3.679V17.112a1.679,1.679,0,0,0,1.679,1.679H15.754a1.679,1.679,0,0,0,1.679-1.679V7.037Z" transform="translate(0 0)" fill="none" stroke="#1b3243" stroke-linecap="round" stroke-linejoin="round" stroke-width="1.6"/>
      <path id="Path_45" data-name="Path 45" d="M14,2V7.037h5.037" transform="translate(-1.604 0)" fill="none" stroke="#1b3243" stroke-linecap="round" stroke-linejoin="round" stroke-width="1.6"/>
      <line id="Line_52" data-name="Line 52" x1="6.67" transform="translate(7.335 11.171)" fill="none" stroke="#1b3243" stroke-linecap="round" stroke-linejoin="round" stroke-width="1.6"/>
      <line id="Line_53" data-name="Line 53" x1="6.67" transform="translate(7.335 14.506)" fill="none" stroke="#1b3243" stroke-linecap="round" stroke-linejoin="round" stroke-width="1.6"/>
      <path id="Path_46" data-name="Path 46" d="M9.679,9H8" transform="translate(-0.642 -1.123)" fill="none" stroke="#1b3243" stroke-linecap="round" stroke-linejoin="round" stroke-width="1.6"/>
    </g>
  </g>
</svg>
