<svg xmlns="http://www.w3.org/2000/svg" width="30" height="30" viewBox="0 0 30 30">
  <g id="Calender_icon" data-name="Calender icon" transform="translate(-504 -169)">
    <g id="Ellipse_9" data-name="Ellipse 9" transform="translate(504 169)" fill="#f2f1ed" stroke="#f2f1ed" stroke-width="2">
      <circle cx="15" cy="15" r="15" stroke="none"/>
      <circle cx="15" cy="15" r="14" fill="none"/>
    </g>
    <g id="Icons" transform="translate(510.241 175.241)">
      <g id="Rounded">
        <g id="Action">
          <g id="_-Round-_-Action-_-date_range" data-name="-Round-/-Action-/-date_range">
            <g id="Group_48" data-name="Group 48">
              <path id="Path" d="M0,0H17.475V17.475H0Z" fill="none" fill-rule="evenodd"/>
              <path id="_Icon-Color" data-name="🔹Icon-Color" d="M18.533,3.748h-.971V2.874a.976.976,0,0,0-1.942,0v.874H7.854V2.874A.929.929,0,0,0,6.883,2a.929.929,0,0,0-.971.874v.874H4.942A1.843,1.843,0,0,0,3.01,5.5L3,17.728a1.852,1.852,0,0,0,1.942,1.748H18.533a1.858,1.858,0,0,0,1.942-1.748V5.5A1.858,1.858,0,0,0,18.533,3.748Zm0,13.106a.929.929,0,0,1-.971.874H5.913a.929.929,0,0,1-.971-.874V8.116H18.533ZM6.883,9.864H8.825v1.748H6.883Zm3.883,0h1.942v1.748H10.767Zm3.883,0h1.942v1.748H14.65Z" transform="translate(-3 -2)" fill="#1b3243" fill-rule="evenodd"/>
            </g>
          </g>
        </g>
      </g>
    </g>
  </g>
</svg>
