<svg xmlns="http://www.w3.org/2000/svg" width="14.818" height="18.523" viewBox="0 0 14.818 18.523">
  <g id="Icons" transform="translate(-1 -1)">
    <g id="Rounded" transform="translate(-240 -332)">
      <g id="Action" transform="translate(100 100)">
        <g id="_-Round-_-Action-_-note_add" data-name="-Round-/-Action-/-note_add" transform="translate(136 230)">
          <g id="Group_96" data-name="Group 96">
            <path id="_Icon-Color" data-name="🔹Icon-Color" d="M13.808,2.546A1.858,1.858,0,0,0,12.493,2H5.852A1.858,1.858,0,0,0,4,3.852V18.671a1.85,1.85,0,0,0,1.843,1.852H16.966a1.858,1.858,0,0,0,1.852-1.852V8.326a1.821,1.821,0,0,0-.546-1.306Zm.38,12.42H12.335v1.852a.926.926,0,0,1-1.852,0V14.966H8.631a.926.926,0,0,1,0-1.852h1.852V11.261a.926.926,0,0,1,1.852,0v1.852h1.852a.926.926,0,0,1,0,1.852ZM12.335,7.557V3.389l5.094,5.094H13.261A.929.929,0,0,1,12.335,7.557Z" transform="translate(1 1)" fill="#1b3243" fill-rule="evenodd"/>
          </g>
        </g>
      </g>
    </g>
  </g>
</svg>
