<svg xmlns="http://www.w3.org/2000/svg" width="45" height="30" viewBox="0 0 45 30">
  <g id="Workout_icon" data-name="Workout icon" transform="translate(-451 -106)">
    <g id="Rectangle_71" data-name="Rectangle 71" transform="translate(451 106)" fill="#f2f1ed" stroke="#f2f1ed" stroke-width="2">
      <rect width="45" height="30" rx="15" stroke="none"/>
      <rect x="1" y="1" width="43" height="28" rx="14" fill="none"/>
    </g>
    <g id="Gym" transform="translate(454.715 109.715)">
      <path id="Path_11" data-name="Path 11" d="M34.435,11.953H33.2V10.715A3.715,3.715,0,0,0,29.481,7H25.766A2.477,2.477,0,0,0,23.29,9.477V14.43H15.86V9.477A2.477,2.477,0,0,0,13.383,7H9.668a3.715,3.715,0,0,0-3.715,3.715v1.238H4.715A3.715,3.715,0,0,0,1,15.668v4.953a3.715,3.715,0,0,0,3.715,3.715H5.953v1.238A3.715,3.715,0,0,0,9.668,29.29h3.715a2.477,2.477,0,0,0,2.477-2.477V21.86h7.43v4.953a2.477,2.477,0,0,0,2.477,2.477h3.715A3.715,3.715,0,0,0,33.2,25.575V24.337h1.238a3.715,3.715,0,0,0,3.715-3.715V15.668a3.715,3.715,0,0,0-3.715-3.715ZM4.715,21.86a1.238,1.238,0,0,1-1.238-1.238V15.668A1.238,1.238,0,0,1,4.715,14.43H5.953v7.43Zm4.953,4.953A1.238,1.238,0,0,1,8.43,25.575V10.715A1.238,1.238,0,0,1,9.668,9.477h3.715V26.813Zm6.192-7.43V16.907h7.43v2.477Zm14.86,6.192a1.238,1.238,0,0,1-1.238,1.238H25.766V9.477h3.715a1.238,1.238,0,0,1,1.238,1.238Zm4.953-4.953a1.238,1.238,0,0,1-1.238,1.238H33.2V14.43h1.238a1.238,1.238,0,0,1,1.238,1.238Z" transform="translate(-1 -7)" fill="#1b3243"/>
    </g>
  </g>
</svg>
