<svg id="Icons" xmlns="http://www.w3.org/2000/svg" width="15" height="15" viewBox="0 0 15 15">
  <g id="Rounded">
    <g id="Action">
      <g id="_-Round-_-Action-_-date_range" data-name="-Round-/-Action-/-date_range">
        <g id="Group_48" data-name="Group 48">
          <path id="Path" d="M0,0H15V15H0Z" fill="none" fill-rule="evenodd"/>
          <path id="_Icon-Color" data-name="🔹Icon-Color" d="M16.333,3.5H15.5V2.75a.838.838,0,0,0-1.667,0V3.5H7.167V2.75A.8.8,0,0,0,6.333,2a.8.8,0,0,0-.833.75V3.5H4.667A1.582,1.582,0,0,0,3.008,5L3,15.5A1.589,1.589,0,0,0,4.667,17H16.333A1.6,1.6,0,0,0,18,15.5V5A1.6,1.6,0,0,0,16.333,3.5Zm0,11.25a.8.8,0,0,1-.833.75H5.5a.8.8,0,0,1-.833-.75V7.25H16.333Zm-10-6H8v1.5H6.333Zm3.333,0h1.667v1.5H9.667ZM13,8.75h1.667v1.5H13Z" transform="translate(-3 -2)" fill="#1b3243" fill-rule="evenodd"/>
        </g>
      </g>
    </g>
  </g>
</svg>
