<svg id="Icons" xmlns="http://www.w3.org/2000/svg" width="15" height="15" viewBox="0 0 15 15">
  <g id="Rounded" transform="translate(0)">
    <g id="Action">
      <g id="_-Round-_-Action-_-question_answer" data-name="-Round-/-Action-/-question_answer">
        <g id="Group_44" data-name="Group 44">
          <path id="Path" d="M0,0H15V15H0Z" transform="translate(0 0)" fill="none" fill-rule="evenodd"/>
          <path id="_Icon-Color" data-name="🔹Icon-Color" d="M15.5,5h-.75v6a.752.752,0,0,1-.75.75H5v.75A1.5,1.5,0,0,0,6.5,14H14l3,3V6.5A1.5,1.5,0,0,0,15.5,5ZM13.25,8.75V3.5A1.5,1.5,0,0,0,11.75,2H3.5A1.5,1.5,0,0,0,2,3.5v9.75l3-3h6.75A1.5,1.5,0,0,0,13.25,8.75Z" transform="translate(-2 -2)" fill="#1b3243" fill-rule="evenodd"/>
        </g>
      </g>
    </g>
  </g>
</svg>
