<svg xmlns="http://www.w3.org/2000/svg" width="13" height="20" viewBox="0 0 13 20">
  <g id="Profil_ikon" data-name="Profil ikon" transform="translate(-61 -349)">
    <g id="Rectangle_132" data-name="Rectangle 132" transform="translate(61 357)" fill="#1b3243" stroke="#1b3243" stroke-width="1">
      <path d="M6.5,0h0A6.5,6.5,0,0,1,13,6.5V9.833A2.167,2.167,0,0,1,10.833,12H2.167A2.167,2.167,0,0,1,0,9.833V6.5A6.5,6.5,0,0,1,6.5,0Z" stroke="none"/>
      <path d="M6.5.5h0a6,6,0,0,1,6,6V9.735A1.765,1.765,0,0,1,10.735,11.5H2.265A1.765,1.765,0,0,1,.5,9.735V6.5a6,6,0,0,1,6-6Z" fill="none"/>
    </g>
    <g id="Ellipse_24" data-name="Ellipse 24" transform="translate(64 349)" fill="#1b3243" stroke="#1b3243" stroke-width="1">
      <circle cx="3.5" cy="3.5" r="3.5" stroke="none"/>
      <circle cx="3.5" cy="3.5" r="3" fill="none"/>
    </g>
  </g>
</svg>
