<svg xmlns="http://www.w3.org/2000/svg" width="30" height="30" viewBox="0 0 30 30">
  <g id="Send" transform="translate(-315 -713)">
    <g id="Ellipse_30" data-name="Ellipse 30" transform="translate(315 713)" fill="#fff" stroke="#1b3243" stroke-width="1">
      <circle cx="15" cy="15" r="15" stroke="none"/>
      <circle cx="15" cy="15" r="14.5" fill="none"/>
    </g>
    <path id="_2705012341582806319" data-name="2705012341582806319" d="M18.442,3.7a.866.866,0,0,0-1.135-1.135l-14.186,6a.866.866,0,0,0,.085,1.627l4.507,1.372a2.6,2.6,0,0,1,.363.141l4.42-4.42A.866.866,0,1,1,13.721,8.51L9.3,12.93a2.6,2.6,0,0,1,.141.363L10.814,17.8a.866.866,0,0,0,1.627.085ZM16.632.968a2.6,2.6,0,0,1,3.406,3.406l-6,14.186a2.6,2.6,0,0,1-4.88-.256L7.785,13.8a.866.866,0,0,0-.577-.576L2.7,11.85a2.6,2.6,0,0,1-.256-4.88Z" transform="translate(318.14 718.853)" fill="#1b3243" fill-rule="evenodd"/>
  </g>
</svg>
