<svg xmlns="http://www.w3.org/2000/svg" width="14.833" height="15.523" viewBox="0 0 14.833 15.523">
  <g id="Icons" transform="translate(2 5)">
    <g id="Rounded" transform="translate(-2 -5)">
      <g id="Action">
        <g id="_-Round-_-Action-_-settings" data-name="-Round-/-Action-/-settings">
          <g id="Group_97" data-name="Group 97">
            <path id="_Icon-Color" data-name="🔹Icon-Color" d="M15.354,10.522a6.155,6.155,0,0,0,.053-.761A6.155,6.155,0,0,0,15.354,9L16.963,7.72a.4.4,0,0,0,.091-.5L15.529,4.538a.38.38,0,0,0-.465-.171l-1.9.776a5.548,5.548,0,0,0-1.289-.761l-.29-2.057A.374.374,0,0,0,11.214,2H8.164a.374.374,0,0,0-.374.326L7.5,4.383a5.834,5.834,0,0,0-1.289.761l-1.9-.776a.369.369,0,0,0-.465.171L2.324,7.223a.387.387,0,0,0,.091.5L4.024,9a6.264,6.264,0,0,0-.053.761,6.264,6.264,0,0,0,.053.761L2.415,11.8a.4.4,0,0,0-.091.5l1.525,2.685a.38.38,0,0,0,.465.171l1.9-.776A5.548,5.548,0,0,0,7.5,15.14L7.79,17.2a.374.374,0,0,0,.374.326h3.05a.374.374,0,0,0,.374-.326l.29-2.057a5.834,5.834,0,0,0,1.289-.761l1.9.776a.369.369,0,0,0,.465-.171L17.054,12.3a.4.4,0,0,0-.091-.5ZM9.689,12.478a2.717,2.717,0,1,1,2.669-2.717A2.7,2.7,0,0,1,9.689,12.478Z" transform="translate(-2.271 -2)" fill="#1b3243" fill-rule="evenodd"/>
          </g>
        </g>
      </g>
    </g>
  </g>
</svg>
