<svg xmlns="http://www.w3.org/2000/svg" width="30" height="30" viewBox="0 0 30 30">
  <g id="User_icon" data-name="User icon" transform="translate(-404 -100)">
    <g id="Ellipse_7" data-name="Ellipse 7" transform="translate(404 100)" fill="none" stroke="#f2f1ed" stroke-width="2">
      <circle cx="15" cy="15" r="15" stroke="none"/>
      <circle cx="15" cy="15" r="14" fill="none"/>
    </g>
    <g id="_9137063671548233621" data-name="9137063671548233621" transform="translate(409.74 104.82)">
      <g id="Group_66" data-name="Group 66" transform="translate(2.77)">
        <path id="Path_17" data-name="Path 17" d="M160.658,112.915a6.458,6.458,0,1,1,6.458-6.458A6.467,6.467,0,0,1,160.658,112.915Zm0-11.075a4.611,4.611,0,1,0,4.611,4.611A4.617,4.617,0,0,0,160.658,101.84Z" transform="translate(-154.2 -100)" fill="#f2f1ed" stroke="#f2f1ed" stroke-width="0.2"/>
      </g>
      <g id="Group_67" data-name="Group 67" transform="translate(0 11.068)">
        <path id="Path_18" data-name="Path 18" d="M131.556,274.327h-1.847c0-4.468-3.31-8.1-7.381-8.1s-7.381,3.632-7.381,8.1H113.1c0-5.585,4.139-10.127,9.228-10.127S131.556,268.742,131.556,274.327Z" transform="translate(-113.1 -264.2)" fill="#f2f1ed" stroke="#f2f1ed" stroke-width="0.2"/>
      </g>
    </g>
  </g>
</svg>
