<svg xmlns="http://www.w3.org/2000/svg" width="53" height="53" viewBox="0 0 53 53">
  <g id="Calender_icon_-_active_grøn" data-name="Calender icon - active grøn" transform="translate(0 0)">
    <g id="Ellipse_9" data-name="Ellipse 9" transform="translate(0 0)" fill="#628a5f" stroke="#628a5f" stroke-width="4">
      <circle cx="26.5" cy="26.5" r="26.5" stroke="none"/>
      <circle cx="26.5" cy="26.5" r="24.5" fill="none"/>
    </g>
    <g id="Icons" transform="translate(11.063 11.237)">
      <g id="Rounded">
        <g id="Action">
          <g id="_-Round-_-Action-_-date_range" data-name="-Round-/-Action-/-date_range">
            <g id="Group_48" data-name="Group 48">
              <path id="Path" d="M0,0H30.976V30.976H0Z" fill="none" fill-rule="evenodd"/>
              <path id="_Icon-Color" data-name="🔹Icon-Color" d="M30.535,5.1H28.814V3.549a1.73,1.73,0,0,0-3.442,0V5.1H11.6V3.549A1.647,1.647,0,0,0,9.884,2,1.647,1.647,0,0,0,8.163,3.549V5.1H6.442A3.266,3.266,0,0,0,3.017,8.2L3,29.879a3.282,3.282,0,0,0,3.442,3.1H30.535a3.293,3.293,0,0,0,3.442-3.1V8.2A3.293,3.293,0,0,0,30.535,5.1Zm0,23.232a1.647,1.647,0,0,1-1.721,1.549H8.163A1.647,1.647,0,0,1,6.442,28.33V12.842H30.535ZM9.884,15.939h3.442v3.1H9.884Zm6.884,0h3.442v3.1H16.767Zm6.884,0h3.442v3.1H23.651Z" transform="translate(-3 -2)" fill="#8cc588" fill-rule="evenodd"/>
            </g>
          </g>
        </g>
      </g>
    </g>
  </g>
</svg>
