<svg id="Chat_icon_-_active_grøn" data-name="Chat icon - active grøn" xmlns="http://www.w3.org/2000/svg" width="54" height="53" viewBox="0 0 54 53">
  <g id="Ellipse_4" data-name="Ellipse 4" fill="#628a5f" stroke="#628a5f" stroke-width="4">
    <ellipse cx="27" cy="26.5" rx="27" ry="26.5" stroke="none"/>
    <ellipse cx="27" cy="26.5" rx="25" ry="24.5" fill="none"/>
  </g>
  <g id="_5723337741605806465" data-name="5723337741605806465" transform="translate(11.5 11.5)">
    <path id="Path_16" data-name="Path 16" d="M4.646,0H20.71a4.773,4.773,0,0,1,3.282,1.287,4.252,4.252,0,0,1,1.364,3.1v9.78a4.252,4.252,0,0,1-1.364,3.1A4.773,4.773,0,0,1,20.71,18.55H12.676L5.621,24.274a.813.813,0,0,1-1.1-.082.708.708,0,0,1-.186-.528l.375-5.117H4.646A4.773,4.773,0,0,1,1.364,17.26,4.242,4.242,0,0,1,0,14.165V4.385a4.252,4.252,0,0,1,1.364-3.1A4.763,4.763,0,0,1,4.646,0ZM27.635,7.133a4.648,4.648,0,0,1,2.358,1.186,4.166,4.166,0,0,1,1.337,3.034v9.78a4.156,4.156,0,0,1-1.337,3.034,4.676,4.676,0,0,1-3.214,1.262h-.165L27,30.64h0a.621.621,0,0,1-.162.464.714.714,0,0,1-.967.071L18.786,25.26H9.457l4.595-4.411h9.735A3.77,3.77,0,0,0,27.649,17.2V7.422c0-.1-.005-.194-.014-.288Zm-20.7,4a.741.741,0,1,1,0-1.479h8.2a.741.741,0,1,1,0,1.479Zm0-3.661A.741.741,0,1,1,6.937,6h11.62a.741.741,0,1,1,0,1.479Zm13.77-6H4.646a3.163,3.163,0,0,0-2.174.854,2.814,2.814,0,0,0-.9,2.052v9.78a2.818,2.818,0,0,0,.9,2.052,3.163,3.163,0,0,0,2.174.854h.9v0l.051,0a.754.754,0,0,1,.727.785l-.305,4.145,5.818-4.722a.8.8,0,0,1,.551-.214h8.317a3.163,3.163,0,0,0,2.174-.854,2.818,2.818,0,0,0,.9-2.052V4.385a2.818,2.818,0,0,0-.9-2.052,3.153,3.153,0,0,0-2.174-.854Z" transform="translate(0 0)" fill="#8cc588" stroke="#8cc588" stroke-width="1"/>
  </g>
</svg>
