<svg id="chat_icon_-_hvid" data-name="chat icon - hvid" xmlns="http://www.w3.org/2000/svg" width="22.402" height="22.402" viewBox="0 0 22.402 22.402">
  <g id="Rounded" transform="translate(0)">
    <g id="Action">
      <g id="_-Round-_-Action-_-question_answer" data-name="-Round-/-Action-/-question_answer">
        <g id="Group_44" data-name="Group 44">
          <path id="Path" d="M0,0H22.4V22.4H0Z" transform="translate(0 0)" fill="none" fill-rule="evenodd"/>
          <path id="_Icon-Color" data-name="🔹Icon-Color" d="M22.162,6.48h-1.12v8.961a1.123,1.123,0,0,1-1.12,1.12H6.48v1.12a2.247,2.247,0,0,0,2.24,2.24h11.2L24.4,24.4V8.721A2.247,2.247,0,0,0,22.162,6.48Zm-3.36,5.6V4.24A2.247,2.247,0,0,0,16.562,2H4.24A2.247,2.247,0,0,0,2,4.24V18.8l4.48-4.48H16.562A2.247,2.247,0,0,0,18.8,12.081Z" transform="translate(-2 -2)" fill="#f2f1ed" fill-rule="evenodd"/>
        </g>
      </g>
    </g>
  </g>
</svg>
