<svg id="Component_1_1" data-name="Component 1 – 1" xmlns="http://www.w3.org/2000/svg" width="30" height="30" viewBox="0 0 30 30">
  <g id="Rectangle_358" data-name="Rectangle 358" fill="#fff" stroke="#8cc588" stroke-width="2">
    <rect width="30" height="30" rx="5" stroke="none"/>
    <rect x="1" y="1" width="28" height="28" rx="4" fill="none"/>
  </g>
  <g id="Icons" transform="translate(5.503 7.182)">
    <g id="Outlined" transform="translate(0 0)">
      <g id="Action">
        <g id="Outlined-_-Action-_-favorite_border" data-name="Outlined-/-Action-/-favorite_border">
          <g id="Group_55" data-name="Group 55">
            <path id="Path" d="M0,0H18.993V17.636H0Z" fill="none" fill-rule="evenodd"/>
            <path id="_-Icon-Color" data-name="🔹-Icon-Color" d="M15.77,3A5.659,5.659,0,0,0,11.5,5.009,5.659,5.659,0,0,0,7.223,3,5.2,5.2,0,0,0,2,8.286c0,3.633,3.229,6.593,8.119,11.091L11.5,20.636l1.377-1.269c4.891-4.488,8.119-7.448,8.119-11.081A5.2,5.2,0,0,0,15.77,3ZM11.591,17.945l-.095.1-.095-.1C6.881,13.8,3.9,11.064,3.9,8.286A3.265,3.265,0,0,1,7.223,4.922a3.712,3.712,0,0,1,3.39,2.268h1.776A3.689,3.689,0,0,1,15.77,4.922a3.265,3.265,0,0,1,3.324,3.364C19.093,11.064,16.112,13.8,11.591,17.945Z" transform="translate(-2 -3)" fill="#e781b0" fill-rule="evenodd"/>
          </g>
        </g>
      </g>
    </g>
  </g>
</svg>
