<svg xmlns="http://www.w3.org/2000/svg" width="53.063" height="53.063" viewBox="0 0 53.063 53.063">
  <g id="Icons" transform="translate(-17 10)">
    <g id="Rounded" transform="translate(17 -10)">
      <g id="Action">
        <g id="_-Round-_-Action-_-assessment" data-name="-Round-/-Action-/-assessment">
          <g id="Group_95" data-name="Group 95">
            <path id="_Icon-Color" data-name="🔹Icon-Color" d="M50.168,3H8.9A5.913,5.913,0,0,0,3,8.9V50.168a5.913,5.913,0,0,0,5.9,5.9H50.168a5.913,5.913,0,0,0,5.9-5.9V8.9A5.913,5.913,0,0,0,50.168,3ZM17.74,44.272a2.957,2.957,0,0,1-2.948-2.948V26.584a2.948,2.948,0,0,1,5.9,0v14.74A2.957,2.957,0,0,1,17.74,44.272Zm11.792,0a2.957,2.957,0,0,1-2.948-2.948V17.74a2.948,2.948,0,0,1,5.9,0V41.324A2.957,2.957,0,0,1,29.532,44.272Zm11.792,0a2.957,2.957,0,0,1-2.948-2.948v-5.9a2.948,2.948,0,0,1,5.9,0v5.9A2.957,2.957,0,0,1,41.324,44.272Z" transform="translate(-3 -3)" fill="#628a5f" fill-rule="evenodd"/>
          </g>
        </g>
      </g>
    </g>
  </g>
</svg>
