<svg xmlns="http://www.w3.org/2000/svg" width="54" height="54" viewBox="0 0 54 54">
  <g id="Group_94" data-name="Group 94" transform="translate(-0.282 0)">
    <g id="Ellipse_23" data-name="Ellipse 23" transform="translate(0.282 0)" fill="none" stroke="#628a5f" stroke-width="4">
      <circle cx="27" cy="27" r="27" stroke="none"/>
      <circle cx="27" cy="27" r="25" fill="none"/>
    </g>
    <g id="_7642394031535694872" data-name="7642394031535694872" transform="translate(11.965 12.425)">
      <g id="Group_93" data-name="Group 93" transform="translate(0 0)">
        <path id="Path_33" data-name="Path 33" d="M35.071,34.121H8.5V7.55a1.05,1.05,0,0,0-2.1,0V35.171a1.038,1.038,0,0,0,1.05,1.05H35.071a1.05,1.05,0,0,0,0-2.1Z" transform="translate(-6.4 -6.5)" fill="#628a5f" stroke="#628a5f" stroke-width="2"/>
        <path id="Path_34" data-name="Path 34" d="M48.2,51.653V36.55a1.05,1.05,0,1,0-2.1,0v15.1a1.05,1.05,0,1,0,2.1,0Z" transform="translate(-35.937 -28.076)" fill="#628a5f" stroke="#628a5f" stroke-width="2"/>
        <path id="Path_35" data-name="Path 35" d="M28.4,51.653V36.55a1.05,1.05,0,1,0-2.1,0v15.1a1.05,1.05,0,1,0,2.1,0Z" transform="translate(-21.206 -28.076)" fill="#628a5f" stroke="#628a5f" stroke-width="2"/>
        <path id="Path_36" data-name="Path 36" d="M87.8,51.653V36.55a1.05,1.05,0,1,0-2.1,0v15.1a1.05,1.05,0,1,0,2.1,0Z" transform="translate(-65.4 -28.076)" fill="#628a5f" stroke="#628a5f" stroke-width="2"/>
        <path id="Path_37" data-name="Path 37" d="M107.6,73.6V66.05a1.05,1.05,0,1,0-2.1,0V73.6a1.05,1.05,0,0,0,2.1,0Z" transform="translate(-80.132 -50.025)" fill="#628a5f" stroke="#628a5f" stroke-width="2"/>
        <path id="Path_38" data-name="Path 38" d="M68,73.6V66.05a1.05,1.05,0,1,0-2.1,0V73.6a1.05,1.05,0,0,0,2.1,0Z" transform="translate(-50.669 -50.025)" fill="#628a5f" stroke="#628a5f" stroke-width="2"/>
      </g>
    </g>
  </g>
</svg>
