<svg xmlns="http://www.w3.org/2000/svg" width="30" height="30" viewBox="0 0 30 30">
  <g id="data_icon_-_hvid" data-name="data icon - hvid" transform="translate(-0.282 0)">
    <g id="Ellipse_23" data-name="Ellipse 23" transform="translate(0.282 0)" fill="none" stroke="#f2f1ed" stroke-width="2">
      <circle cx="15" cy="15" r="15" stroke="none"/>
      <circle cx="15" cy="15" r="14" fill="none"/>
    </g>
    <g id="_7642394031535694872" data-name="7642394031535694872" transform="translate(6.772 6.903)">
      <g id="Group_93" data-name="Group 93" transform="translate(0 0)">
        <path id="Path_33" data-name="Path 33" d="M22.328,21.845H7.566V7.083a.583.583,0,0,0-1.166,0V22.428a.577.577,0,0,0,.583.583H22.328a.583.583,0,0,0,0-1.166Z" transform="translate(-6.4 -6.5)" fill="#f2f1ed" stroke="#f2f1ed" stroke-width="1"/>
        <path id="Path_34" data-name="Path 34" d="M47.1,44.474v-8.39a.506.506,0,1,0-1,0v8.39a.506.506,0,1,0,1,0Z" transform="translate(-40.454 -31.376)" fill="#f2f1ed" stroke="#f2f1ed" stroke-width="1"/>
        <path id="Path_35" data-name="Path 35" d="M27.3,44.474v-8.39a.506.506,0,1,0-1,0v8.39a.506.506,0,1,0,1,0Z" transform="translate(-23.47 -31.376)" fill="#f2f1ed" stroke="#f2f1ed" stroke-width="1"/>
        <path id="Path_36" data-name="Path 36" d="M86.7,44.474v-8.39a.506.506,0,1,0-1,0v8.39a.506.506,0,1,0,1,0Z" transform="translate(-74.423 -31.376)" fill="#f2f1ed" stroke="#f2f1ed" stroke-width="1"/>
        <path id="Path_37" data-name="Path 37" d="M106.5,69.778v-4.2a.506.506,0,1,0-1,0v4.2a.506.506,0,1,0,1,0Z" transform="translate(-91.407 -56.681)" fill="#f2f1ed" stroke="#f2f1ed" stroke-width="1"/>
        <path id="Path_38" data-name="Path 38" d="M66.9,69.778v-4.2a.506.506,0,1,0-1,0v4.2a.506.506,0,1,0,1,0Z" transform="translate(-57.438 -56.681)" fill="#f2f1ed" stroke="#f2f1ed" stroke-width="1"/>
      </g>
    </g>
  </g>
</svg>
