<svg xmlns="http://www.w3.org/2000/svg" width="54" height="54" viewBox="0 0 54 54">
  <g id="Filled_Heart_icon" data-name="Filled Heart icon" transform="translate(-0.212 0)">
    <g id="Ellipse_18" data-name="Ellipse 18" transform="translate(0.212 0)" fill="none" stroke="#628a5f" stroke-width="4">
      <circle cx="27" cy="27" r="27" stroke="none"/>
      <circle cx="27" cy="27" r="25" fill="none"/>
    </g>
    <g id="Icons" transform="translate(11.716 13.977)">
      <g id="Outlined" transform="translate(0)">
        <g id="Action">
          <g id="Outlined-_-Action-_-favorite" data-name="Outlined-/-Action-/-favorite">
            <g id="Group_56" data-name="Group 56">
              <path id="Path" d="M0,0H30.916V28.708H0Z" fill="none" fill-rule="evenodd"/>
              <path id="_-Icon-Color" data-name="🔹-Icon-Color" d="M17.458,31.708l-2.241-2.065C7.256,22.337,2,17.518,2,11.6A8.471,8.471,0,0,1,10.5,3a9.212,9.212,0,0,1,6.956,3.27A9.212,9.212,0,0,1,24.414,3a8.471,8.471,0,0,1,8.5,8.6c0,5.914-5.256,10.732-13.217,18.054Z" transform="translate(-2 -3)" fill="#628a5f" fill-rule="evenodd"/>
            </g>
          </g>
        </g>
      </g>
    </g>
  </g>
</svg>
