<svg xmlns="http://www.w3.org/2000/svg" width="54" height="54" viewBox="0 0 54 54">
  <g id="height_icon" data-name="height icon" transform="translate(-0.102)">
    <g id="Ellipse_14" data-name="Ellipse 14" transform="translate(0.102)" fill="none" stroke="#628a5f" stroke-width="4">
      <circle cx="27" cy="27" r="27" stroke="none"/>
      <circle cx="27" cy="27" r="25" fill="none"/>
    </g>
    <path id="_3145144616297301133942" data-name="3145144616297301133942" d="M32.858,20.395H31.312V16.356a.5.5,0,0,0,0-.1c-.145-3.4-7.359-5.2-14.15-5.2-6.308-.033-12.954,1.541-14,4.468A.678.678,0,0,0,3,15.94v7.186c0,3.4,7.008,5.268,13.751,5.339H32.858a3.764,3.764,0,0,1,2.417.891,3.763,3.763,0,0,1-2.417.891H8.353a.583.583,0,0,0-.427.19.676.676,0,0,0-.177.46v6.783a.676.676,0,0,0,.177.46.583.583,0,0,0,.427.19H32.858a5.011,5.011,0,0,0,3.664-1.636,5.81,5.81,0,0,0,1.52-3.944V25.975a5.81,5.81,0,0,0-1.52-3.944,5.011,5.011,0,0,0-3.664-1.636Zm-25.2-4.65a26.006,26.006,0,0,1,9.5-1.476,26.006,26.006,0,0,1,9.5,1.476.612.612,0,0,1,.289.238.691.691,0,0,1,0,.747.612.612,0,0,1-.289.238,26.006,26.006,0,0,1-9.5,1.476,26.006,26.006,0,0,1-9.5-1.476.612.612,0,0,1-.289-.238.691.691,0,0,1,0-.747.612.612,0,0,1,.289-.238ZM30.1,18.62v1.775h-3.54A10.391,10.391,0,0,0,30.1,18.62ZM33.209,37.03v-.923a.676.676,0,0,0-.177-.46.574.574,0,0,0-.854,0,.676.676,0,0,0-.177.46v.923H28.182v-2.5a.676.676,0,0,0-.177-.46.574.574,0,0,0-.854,0,.676.676,0,0,0-.177.46v2.5H23.155v-.923a.676.676,0,0,0-.177-.46.574.574,0,0,0-.854,0,.676.676,0,0,0-.177.46v.923H18.1v-2.5a.676.676,0,0,0-.177-.46.574.574,0,0,0-.854,0,.676.676,0,0,0-.177.46v2.5H13.1v-.923a.676.676,0,0,0-.177-.46.574.574,0,0,0-.854,0,.676.676,0,0,0-.177.46v.923H8.957V31.554h23.9a4.944,4.944,0,0,0,3.263-1.249,4.486,4.486,0,0,1,.708,2.084,4.567,4.567,0,0,1-.357,2.185,4.219,4.219,0,0,1-1.325,1.7,3.8,3.8,0,0,1-1.938.756Zm2.912-8.591A4.931,4.931,0,0,0,33.7,27.269V26.248a.676.676,0,0,0-.177-.46.574.574,0,0,0-.854,0,.676.676,0,0,0-.177.46v.923h-3.83v-2.5a.676.676,0,0,0-.177-.46.574.574,0,0,0-.854,0,.676.676,0,0,0-.177.46v2.5H23.639v-.923a.676.676,0,0,0-.177-.46.574.574,0,0,0-.854,0,.676.676,0,0,0-.177.46v.923H18.612v-2.5a.676.676,0,0,0-.177-.46.574.574,0,0,0-.854,0,.676.676,0,0,0-.177.46v2.5h-.248c-1.251,0-2.417-.065-3.571-.176v-.748a.676.676,0,0,0-.177-.46.574.574,0,0,0-.854,0,.676.676,0,0,0-.177.46v.6a25.656,25.656,0,0,1-3.818-.787V24.674a.676.676,0,0,0-.177-.46.574.574,0,0,0-.854,0,.676.676,0,0,0-.177.46v.988c-1.97-.741-3.142-1.639-3.142-2.53V18.62c2.3,1.951,7.516,3.024,12.585,3.07H32.858a3.767,3.767,0,0,1,2.06.619,4.168,4.168,0,0,1,1.464,1.679,4.555,4.555,0,0,1,.444,2.252,4.5,4.5,0,0,1-.705,2.174Z" transform="translate(6.046 2.091)" fill="#628a5f" stroke="#628a5f" stroke-width="1"/>
  </g>
</svg>
