<svg id="Info_icon_-_hvid" data-name="Info icon - hvid" xmlns="http://www.w3.org/2000/svg" width="30" height="30" viewBox="0 0 30 30">
  <g id="Path_31" data-name="Path 31" transform="translate(0 0)" fill="none">
    <path d="M15,0A15,15,0,1,1,0,15,15,15,0,0,1,15,0Z" stroke="none"/>
    <path d="M 15 2 C 11.5275707244873 2 8.262990951538086 3.352239608764648 5.807609558105469 5.807609558105469 C 3.352239608764648 8.262990951538086 2 11.5275707244873 2 15 C 2 18.47243118286133 3.352239608764648 21.73701095581055 5.807609558105469 24.19239044189453 C 8.262990951538086 26.64776039123535 11.5275707244873 28 15 28 C 18.47243118286133 28 21.73701095581055 26.64776039123535 24.19239044189453 24.19239044189453 C 26.64776039123535 21.73701095581055 28 18.47243118286133 28 15 C 28 11.5275707244873 26.64776039123535 8.262990951538086 24.19239044189453 5.807609558105469 C 21.73701095581055 3.352239608764648 18.47243118286133 2 15 2 M 15 0 C 23.28426933288574 0 30 6.715730667114258 30 15 C 30 23.28426933288574 23.28426933288574 30 15 30 C 6.715730667114258 30 0 23.28426933288574 0 15 C 0 6.715730667114258 6.715730667114258 0 15 0 Z" stroke="none" fill="#f2f1ed"/>
  </g>
  <g id="Group_68" data-name="Group 68" transform="translate(13.17 6.103)">
    <path id="Path_28" data-name="Path 28" d="M31.858,22.633c-2,.033-1.858,1.548-1.858,2.07v8.787a1.658,1.658,0,0,0,1.858,1.552c1.026,0,1.931-.663,1.858-1.552V24.7C33.717,24.182,33.858,22.6,31.858,22.633Z" transform="translate(-29.998 -17.182)" fill="#f2f1ed"/>
    <path id="Path_29" data-name="Path 29" d="M31.862,15.42h0a1.862,1.862,0,1,0,1.862,1.862A1.862,1.862,0,0,0,31.862,15.42Z" transform="translate(-29.997 -15.42)" fill="#f2f1ed"/>
  </g>
</svg>
