<svg id="Instilling_ikon" data-name="Instilling ikon" xmlns="http://www.w3.org/2000/svg" width="52" height="53" viewBox="0 0 52 53">
  <g id="Rounded">
    <g id="Action">
      <g id="_-Round-_-Action-_-settings" data-name="-Round-/-Action-/-settings">
        <g id="Group_97" data-name="Group 97">
          <path id="_Icon-Color" data-name="🔹Icon-Color" d="M48.136,31.1a20.478,20.478,0,0,0,.187-2.6,20.478,20.478,0,0,0-.187-2.6l5.64-4.372a1.329,1.329,0,0,0,.321-1.7l-5.346-9.169a1.349,1.349,0,0,0-1.63-.583l-6.656,2.65a19.57,19.57,0,0,0-4.517-2.6L34.932,3.113A1.3,1.3,0,0,0,33.622,2H22.931a1.3,1.3,0,0,0-1.31,1.113l-1.016,7.023a20.579,20.579,0,0,0-4.517,2.6l-6.656-2.65a1.309,1.309,0,0,0-1.63.583L2.456,19.835a1.3,1.3,0,0,0,.321,1.7L8.417,25.9a20.839,20.839,0,0,0-.187,2.6,20.839,20.839,0,0,0,.187,2.6L2.777,35.47a1.329,1.329,0,0,0-.321,1.7L7.8,46.335a1.349,1.349,0,0,0,1.63.583l6.656-2.65a19.57,19.57,0,0,0,4.517,2.6l1.016,7.022A1.3,1.3,0,0,0,22.931,55H33.622a1.3,1.3,0,0,0,1.31-1.113l1.016-7.022a20.579,20.579,0,0,0,4.517-2.6l6.656,2.65a1.309,1.309,0,0,0,1.63-.583L54.1,37.166a1.329,1.329,0,0,0-.321-1.7Zm-19.86,6.678A9.275,9.275,0,1,1,37.632,28.5,9.326,9.326,0,0,1,28.276,37.775Z" transform="translate(-2.271 -2)" fill="#628a5f" fill-rule="evenodd"/>
        </g>
      </g>
    </g>
  </g>
</svg>
