<svg xmlns="http://www.w3.org/2000/svg" width="22.402" height="22.402" viewBox="0 0 22.402 22.402">
  <g id="luk_icon_-_hvid" data-name="luk icon - hvid" transform="translate(-2.323 -2.322)">
    <g id="Icons" transform="translate(2.323 2.322)">
      <path id="_-Icon-Color" data-name="🔹-Icon-Color" d="M27.313,5.921a1.692,1.692,0,0,0-2.4,0l-8.308,8.292L8.3,5.9A1.694,1.694,0,0,0,5.9,8.3l8.308,8.308L5.9,24.917a1.694,1.694,0,1,0,2.4,2.4L16.609,19l8.308,8.308a1.694,1.694,0,1,0,2.4-2.4L19,16.609,27.313,8.3A1.7,1.7,0,0,0,27.313,5.921Z" transform="translate(-5.408 -5.408)" fill="#f2f1ed" fill-rule="evenodd"/>
    </g>
  </g>
</svg>
