<svg xmlns="http://www.w3.org/2000/svg" width="53" height="53" viewBox="0 0 53 53">
  <g id="Menu_icon_-_active_grøn" data-name="Menu icon - active grøn" transform="translate(-0.429)">
    <g id="Ellipse_6" data-name="Ellipse 6" transform="translate(0.429)" fill="#628a5f" stroke="#628a5f" stroke-width="4">
      <circle cx="26.5" cy="26.5" r="26.5" stroke="none"/>
      <circle cx="26.5" cy="26.5" r="24.5" fill="none"/>
    </g>
    <g id="Icons" transform="translate(11.337 13.003)">
      <g id="Rounded" transform="translate(0)">
        <g id="Action">
          <g id="_-Round-_-Action-_-reorder" data-name="-Round-/-Action-/-reorder">
            <g id="Group_41" data-name="Group 41">
              <path id="Path" d="M0,0H30.341V26.007H0Z" fill="none" fill-rule="evenodd"/>
              <path id="_Icon-Color" data-name="🔹Icon-Color" d="M4.686,23.576h26.97a1.866,1.866,0,0,0,0-3.715H4.686a1.866,1.866,0,0,0,0,3.715Zm0,7.43h26.97a1.866,1.866,0,0,0,0-3.715H4.686a1.866,1.866,0,0,0,0,3.715Zm0-14.861h26.97a1.783,1.783,0,0,0,1.686-1.858,1.783,1.783,0,0,0-1.686-1.858H4.686A1.783,1.783,0,0,0,3,14.288,1.783,1.783,0,0,0,4.686,16.146ZM3,6.858A1.783,1.783,0,0,0,4.686,8.715h26.97a1.783,1.783,0,0,0,1.686-1.858A1.783,1.783,0,0,0,31.655,5H4.686A1.783,1.783,0,0,0,3,6.858Z" transform="translate(-3 -5)" fill="#8cc588" fill-rule="evenodd"/>
            </g>
          </g>
        </g>
      </g>
    </g>
  </g>
</svg>
