<svg xmlns="http://www.w3.org/2000/svg" width="52" height="52" viewBox="0 0 52 52">
  <path id="_12267135051582807092" data-name="12267135051582807092" d="M35.9,2.889a7.036,7.036,0,0,1,9.95,0l5.093,5.093a7.036,7.036,0,0,1,0,9.95L18.1,50.768a7.036,7.036,0,0,1-4.975,2.061H3.345A2.345,2.345,0,0,1,1,50.483V40.7a7.036,7.036,0,0,1,2.061-4.975Zm6.634,3.317a2.345,2.345,0,0,0-3.317,0l-4.406,4.406,8.41,8.41,4.406-4.406a2.345,2.345,0,0,0,0-3.317ZM39.9,22.339l-8.41-8.41L6.378,39.041A2.345,2.345,0,0,0,5.691,40.7v7.438h7.438a2.345,2.345,0,0,0,1.658-.687Z" transform="translate(-1 -0.828)" fill="#628a5f" fill-rule="evenodd"/>
</svg>
