<svg xmlns="http://www.w3.org/2000/svg" width="35" height="35" viewBox="0 0 35 35">
  <g id="play_icon_-_pink" data-name="play icon - pink" transform="translate(-108 -390)">
    <g id="Path_87" data-name="Path 87" transform="translate(108 390)" fill="#f2f1ed">
      <path d="M 30 34 L 5 34 C 2.794389963150024 34 1 32.20560836791992 1 30 L 1 5 C 1 2.794389963150024 2.794389963150024 1 5 1 L 30 1 C 32.20560836791992 1 34 2.794389963150024 34 5 L 34 30 C 34 32.20560836791992 32.20560836791992 34 30 34 Z" stroke="none"/>
      <path d="M 5 2 C 3.345790863037109 2 2 3.345790863037109 2 5 L 2 30 C 2 31.65420913696289 3.345790863037109 33 5 33 L 30 33 C 31.65420913696289 33 33 31.65420913696289 33 30 L 33 5 C 33 3.345790863037109 31.65420913696289 2 30 2 L 5 2 M 5 0 L 30 0 C 32.76142120361328 0 35 2.238571166992188 35 5 L 35 30 C 35 32.76142120361328 32.76142120361328 35 30 35 L 5 35 C 2.238571166992188 35 0 32.76142120361328 0 30 L 0 5 C 0 2.238571166992188 2.238571166992188 0 5 0 Z" stroke="none" fill="#8cc588"/>
    </g>
    <g id="Play" transform="translate(94.732 375.527)">
      <path id="_Icon-Color" data-name="🔹Icon-Color" d="M7,7.8v20.52a1.977,1.977,0,0,0,3.05,1.664l16.123-10.26a1.981,1.981,0,0,0,0-3.347L10.05,6.138A1.977,1.977,0,0,0,7,7.8Z" transform="translate(15.75 13.91)" fill="#e781b0" fill-rule="evenodd"/>
    </g>
  </g>
</svg>
