<svg id="Group_131" data-name="Group 131" xmlns="http://www.w3.org/2000/svg" width="54" height="54" viewBox="0 0 54 54">
  <g id="Icons" transform="translate(6.001 26.579) rotate(-45)">
    <path id="_-Icon-Color" data-name="🔹-Icon-Color" d="M28.164.959A2.181,2.181,0,0,0,25.082.924L14.516,11.442,3.7.656A2.181,2.181,0,0,0,.622.62,2.168,2.168,0,0,0,.657,3.695L11.47,14.482.9,25.022A2.168,2.168,0,0,0,.94,28.1a2.181,2.181,0,0,0,3.082.035l10.566-10.54L25.4,28.378a2.152,2.152,0,1,0,3.047-3.039L17.634,14.552,28.2,4.012A2.182,2.182,0,0,0,28.164.959Z" fill="#628a5f" fill-rule="evenodd"/>
  </g>
  <g id="Ellipse_33" data-name="Ellipse 33" fill="none" stroke="#628a5f" stroke-width="4">
    <circle cx="27" cy="27" r="27" stroke="none"/>
    <circle cx="27" cy="27" r="25" fill="none"/>
  </g>
</svg>
