<svg xmlns="http://www.w3.org/2000/svg" width="34" height="53" viewBox="0 0 34 53">
  <g id="Profil_ikon" data-name="Profil ikon" transform="translate(0.493)">
    <g id="Rectangle_132" data-name="Rectangle 132" transform="translate(-0.493 21)" fill="#628a5f" stroke="#628a5f" stroke-width="1">
      <path d="M15,0h4A15,15,0,0,1,34,15V26a6,6,0,0,1-6,6H6a6,6,0,0,1-6-6V15A15,15,0,0,1,15,0Z" stroke="none"/>
      <path d="M15,.5h4A14.5,14.5,0,0,1,33.5,15V26A5.5,5.5,0,0,1,28,31.5H6A5.5,5.5,0,0,1,.5,26V15A14.5,14.5,0,0,1,15,.5Z" fill="none"/>
    </g>
    <g id="Ellipse_24" data-name="Ellipse 24" transform="translate(7.507)" fill="#628a5f" stroke="#628a5f" stroke-width="1">
      <circle cx="9.5" cy="9.5" r="9.5" stroke="none"/>
      <circle cx="9.5" cy="9.5" r="9" fill="none"/>
    </g>
  </g>
</svg>
