<svg id="Icons" xmlns="http://www.w3.org/2000/svg" width="44.167" height="53" viewBox="0 0 44.167 53">
  <g id="Rounded">
    <g id="Action">
      <g id="_-Round-_-Action-_-note_add" data-name="-Round-/-Action-/-note_add">
        <g id="Group_96" data-name="Group 96">
          <path id="_Icon-Color" data-name="🔹Icon-Color" d="M33.233,3.563A5.657,5.657,0,0,0,29.313,2H9.521A5.43,5.43,0,0,0,4,7.3V49.7A5.405,5.405,0,0,0,9.493,55H42.646a5.43,5.43,0,0,0,5.521-5.3V20.1a5.108,5.108,0,0,0-1.629-3.736ZM34.365,39.1H28.844v5.3a2.763,2.763,0,0,1-5.521,0V39.1H17.8a2.652,2.652,0,1,1,0-5.3h5.521V28.5a2.763,2.763,0,0,1,5.521,0v5.3h5.521a2.652,2.652,0,1,1,0,5.3ZM28.844,17.9V5.975L44.026,20.55H31.6A2.715,2.715,0,0,1,28.844,17.9Z" transform="translate(-4 -2)" fill="#628a5f" fill-rule="evenodd"/>
        </g>
      </g>
    </g>
  </g>
</svg>
