<svg xmlns="http://www.w3.org/2000/svg" width="54" height="54" viewBox="0 0 54 54">
  <g id="Setting_icon" data-name="Setting icon" transform="translate(0 0)">
    <g id="Ellipse_5" data-name="Ellipse 5" transform="translate(0 0)" fill="none" stroke="#628a5f" stroke-width="4">
      <circle cx="27" cy="27" r="27" stroke="none"/>
      <circle cx="27" cy="27" r="25" fill="none"/>
    </g>
    <g id="_16945449851552644365" data-name="16945449851552644365" transform="translate(10.969 11.508)">
      <ellipse id="XMLID_224_" cx="5.232" cy="5.232" rx="5.232" ry="5.232" transform="translate(10.449 10.448)" fill="none" stroke="#628a5f" stroke-linecap="round" stroke-linejoin="round" stroke-miterlimit="10" stroke-width="3"/>
      <path id="XMLID_242_" d="M34.985,11.885,33.681,9.8a2.725,2.725,0,0,0-3.562-.883l-.686.367c-2.608,1.392-5.867-.349-5.867-3.134V5.412A2.515,2.515,0,0,0,20.958,3H18.35a2.515,2.515,0,0,0-2.608,2.412v.733c0,2.785-3.26,4.527-5.867,3.134l-.686-.367A2.725,2.725,0,0,0,5.627,9.8l-1.3,2.089a2.316,2.316,0,0,0,.954,3.3l.686.367a3.488,3.488,0,0,1,0,6.267l-.686.367a2.316,2.316,0,0,0-.954,3.3l1.3,2.089a2.725,2.725,0,0,0,3.562.883l.686-.367c2.608-1.393,5.867.349,5.867,3.134v.733a2.515,2.515,0,0,0,2.608,2.412h2.608a2.515,2.515,0,0,0,2.608-2.412v-.733c0-2.785,3.26-4.527,5.867-3.134l.686.367a2.725,2.725,0,0,0,3.562-.883l1.3-2.089a2.316,2.316,0,0,0-.954-3.3l-.686-.367a3.488,3.488,0,0,1,0-6.267l.686-.367A2.315,2.315,0,0,0,34.985,11.885Z" transform="translate(-3.974 -3)" fill="none" stroke="#628a5f" stroke-linecap="round" stroke-linejoin="round" stroke-miterlimit="10" stroke-width="3"/>
    </g>
  </g>
</svg>
