<svg xmlns="http://www.w3.org/2000/svg" width="20" height="23" viewBox="0 0 20 23">
  <g id="trash_can_-_hvid" data-name="trash can - hvid" transform="translate(0.286 0.598)">
    <g id="Rectangle_316" data-name="Rectangle 316" transform="translate(1.714 3.402)" fill="none" stroke="#f2f1ed" stroke-width="1.2">
      <path d="M0,0H16a0,0,0,0,1,0,0V17a2,2,0,0,1-2,2H2a2,2,0,0,1-2-2V0A0,0,0,0,1,0,0Z" stroke="none"/>
      <path d="M.6.6H15.4a0,0,0,0,1,0,0V17A1.4,1.4,0,0,1,14,18.4H2A1.4,1.4,0,0,1,.6,17V.6A0,0,0,0,1,.6.6Z" fill="none"/>
    </g>
    <g id="Rectangle_320" data-name="Rectangle 320" transform="translate(19.714 2.402) rotate(90)" fill="#707070" stroke="#f2f1ed" stroke-width="1">
      <rect width="2" height="20" rx="1" stroke="none"/>
      <rect x="0.5" y="0.5" width="1" height="19" rx="0.5" fill="none"/>
    </g>
    <g id="Rectangle_321" data-name="Rectangle 321" transform="translate(5.714 -0.598)" fill="none" stroke="#f2f1ed" stroke-width="1.2">
      <path d="M2,0H6A2,2,0,0,1,8,2V4A0,0,0,0,1,8,4H0A0,0,0,0,1,0,4V2A2,2,0,0,1,2,0Z" stroke="none"/>
      <path d="M2,.6H6A1.4,1.4,0,0,1,7.4,2V3.4a0,0,0,0,1,0,0H.6a0,0,0,0,1,0,0V2A1.4,1.4,0,0,1,2,.6Z" fill="none"/>
    </g>
    <g id="Group_149" data-name="Group 149" transform="translate(4.561 6.273)">
      <rect id="Rectangle_317" data-name="Rectangle 317" width="2" height="13" rx="1" transform="translate(8.154 0.129)" fill="#fff"/>
      <rect id="Rectangle_318" data-name="Rectangle 318" width="2" height="13" rx="1" transform="translate(0.154 0.129)" fill="#fff"/>
      <rect id="Rectangle_322" data-name="Rectangle 322" width="2" height="13" rx="1" transform="translate(4.154 0.129)" fill="#fff"/>
    </g>
  </g>
</svg>
