<svg id="trash_can_-_green" data-name="trash can - green" xmlns="http://www.w3.org/2000/svg" width="44" height="51" viewBox="0 0 44 51">
  <path id="Path_77" data-name="Path 77" d="M0,0H36V36a5,5,0,0,1-5,5H5a5,5,0,0,1-5-5Z" transform="translate(4 10)" fill="#628a5f"/>
  <rect id="Rectangle_317" data-name="Rectangle 317" width="4" height="29" rx="2" transform="translate(28 16)" fill="#f2f1ed"/>
  <rect id="Rectangle_318" data-name="Rectangle 318" width="4" height="29" rx="2" transform="translate(12 16)" fill="#f2f1ed"/>
  <path id="Path_62" data-name="Path 62" d="M2,0A2,2,0,0,1,4,2V27a2,2,0,0,1-4,0V2A2,2,0,0,1,2,0Z" transform="translate(20 16)" fill="#f2f1ed"/>
  <rect id="Rectangle_320" data-name="Rectangle 320" width="4" height="44" rx="2" transform="translate(44 8) rotate(90)" fill="#628a5f"/>
  <g id="Rectangle_321" data-name="Rectangle 321" transform="translate(12)" fill="none" stroke="#628a5f" stroke-width="3">
    <path d="M6,0h8a6,6,0,0,1,6,6v5a0,0,0,0,1,0,0H0a0,0,0,0,1,0,0V6A6,6,0,0,1,6,0Z" stroke="none"/>
    <path d="M6,1.5h8A4.5,4.5,0,0,1,18.5,6V9.5a0,0,0,0,1,0,0H1.5a0,0,0,0,1,0,0V6A4.5,4.5,0,0,1,6,1.5Z" fill="none"/>
  </g>
</svg>
