<svg xmlns="http://www.w3.org/2000/svg" width="51.002" height="51.319" viewBox="0 0 51.002 51.319">
  <g id="_21447312741621866478" data-name="21447312741621866478" transform="translate(0 0)">
    <path id="Path_80" data-name="Path 80" d="M25.637,266.321a2.3,2.3,0,1,0,4.6,0c0-.013,0-.026,0-.039H25.639C25.639,266.3,25.637,266.308,25.637,266.321Z" transform="translate(-20.921 -217.302)" fill="#628a5f"/>
    <path id="Path_81" data-name="Path 81" d="M226.637,266.321a2.3,2.3,0,1,0,4.6,0c0-.013,0-.026,0-.039h-4.595C226.639,266.3,226.637,266.308,226.637,266.321Z" transform="translate(-184.949 -217.302)" fill="#628a5f"/>
    <path id="Path_82" data-name="Path 82" d="M119.324,8.168A4.138,4.138,0,1,0,116.233,3.2,4.138,4.138,0,0,0,119.324,8.168Z" transform="translate(-94.764 0)" fill="#628a5f"/>
    <path id="Path_83" data-name="Path 83" d="M106.265,61.455h2.1a14.683,14.683,0,0,0-2.2-1.268,19.27,19.27,0,0,1,.156-3.716,4.309,4.309,0,0,0,1.564.295h.041a9.23,9.23,0,0,0,4.873-1.8A1.471,1.471,0,0,0,111.2,52.5a6.539,6.539,0,0,1-3.265,1.325,1.221,1.221,0,0,1-.874-.3,1.352,1.352,0,0,1-.2-.208c.126-.632.251-1.232.358-1.779.528-1.831-.163-4.022-1.733-4.413a3,3,0,0,0-.356-.065,1.463,1.463,0,0,0-1.466.138,4.151,4.151,0,0,0-1.749,1.077c.41,0,.794.013,1.133.03.687.035,1.184.088,1.312.1a1.845,1.845,0,0,1,1.609,1.573,1.814,1.814,0,0,1,.018.3c0,.055,0,.111-.011.167a1.84,1.84,0,0,1-1.825,1.622,1.871,1.871,0,0,1-.219-.013l-.142-.015c-.1-.01-.253-.024-.44-.038L103.244,52c-.343-.023-.827-.048-1.349-.048a11.955,11.955,0,0,0-1.73.112c-.079.285-.152.566-.217.842a17.611,17.611,0,0,0,2.4,2.2,1.839,1.839,0,1,1-2.281,2.886c-.214-.17-.417-.335-.615-.5.015.917.087,1.9.216,3a5.743,5.743,0,0,0,.271.964h6.324Z" transform="translate(-81.161 -38.292)" fill="#628a5f"/>
    <path id="Path_84" data-name="Path 84" d="M85.774,65.644a1.472,1.472,0,0,0,.913-2.626,19.6,19.6,0,0,1-2.273-2.047q-.231-.252-.4-.468a3.593,3.593,0,0,1-.459-.718,1.3,1.3,0,0,1-.048-.124,3.054,3.054,0,0,1,.919-.3c.13-.025.27-.046.413-.065a12.926,12.926,0,0,1,1.621-.093c.479,0,.926.02,1.284.043l.2.014c.191.014.344.028.448.038l.149.016A1.472,1.472,0,0,0,88.89,56.4c-.025,0-.54-.064-1.3-.1-.337-.017-.722-.029-1.133-.029l-.3,0a11.453,11.453,0,0,0-3.081.4,4.211,4.211,0,0,0-1.637.88,2.713,2.713,0,0,0-.9,2.015A4.579,4.579,0,0,0,81.7,62.319a16.478,16.478,0,0,0,2.316,2.314c.266.225.545.455.847.694A1.466,1.466,0,0,0,85.774,65.644Z" transform="translate(-65.726 -45.915)" fill="#628a5f"/>
    <path id="Path_85" data-name="Path 85" d="M73.825,156.9a2.3,2.3,0,0,0,3.055-1.113,100.7,100.7,0,0,0,5.758-15.344c.215.112.432.235.643.367a5.786,5.786,0,0,1,1.55,1.33,2.18,2.18,0,0,1,.5,1.369,3.678,3.678,0,0,1-.539,1.753,12.52,12.52,0,0,1-2.4,2.933,2.3,2.3,0,1,0,3.167,3.335,16.978,16.978,0,0,0,3.27-4.058,8.239,8.239,0,0,0,1.1-3.963,6.717,6.717,0,0,0-1.052-3.593H78.007a97.56,97.56,0,0,1-5.3,13.929A2.3,2.3,0,0,0,73.825,156.9Z" transform="translate(-59.161 -114.183)" fill="#628a5f"/>
    <path id="Path_86" data-name="Path 86" d="M.552,107.944h49.9a.552.552,0,0,0,.552-.552v-3.863a.552.552,0,0,0-.552-.552H48.061l-7.315-23.03a.52.52,0,0,0-.4-.348l4.561-5.582a.263.263,0,0,0-.037-.369l-1.084-.885a.262.262,0,0,0-.369.037L35.2,82.862H11.956a4.6,4.6,0,0,0-4.6,4.6v15.517H.552a.552.552,0,0,0-.552.552v3.863A.552.552,0,0,0,.552,107.944ZM18.952,84.7H38.01l5.806,18.277H9.2V87.46a2.764,2.764,0,0,1,2.759-2.76Z" transform="translate(0 -59.331)" fill="#628a5f"/>
  </g>
</svg>
