<svg id="User_icon" data-name="User icon" xmlns="http://www.w3.org/2000/svg" width="54" height="54" viewBox="0 0 54 54">
  <g id="Path_30" data-name="Path 30" transform="translate(0 0)" fill="none">
    <path d="M27,0A27,27,0,1,1,0,27,27,27,0,0,1,27,0Z" stroke="none"/>
    <path d="M 27 4.000003814697266 C 23.89325523376465 4.000003814697266 20.88156509399414 4.607566833496094 18.04858779907227 5.805812835693359 C 15.31024551391602 6.964035034179688 12.85011291503906 8.622978210449219 10.73654556274414 10.73654556274414 C 8.622978210449219 12.85011291503906 6.964035034179688 15.31024551391602 5.805812835693359 18.04859161376953 C 4.607566833496094 20.88156890869141 4 23.89325714111328 4 27.00000190734863 C 4 30.10674667358398 4.607566833496094 33.11843490600586 5.805812835693359 35.95141220092773 C 6.964035034179688 38.68975830078125 8.622978210449219 41.1498908996582 10.73654556274414 43.26345825195312 C 12.85011291503906 45.37702178955078 15.31024551391602 47.03596878051758 18.04858779907227 48.19419097900391 C 20.88156509399414 49.39243316650391 23.89325523376465 50 27 50 C 30.10674476623535 50 33.11843109130859 49.39243316650391 35.95140838623047 48.19419097900391 C 38.68975448608398 47.03596878051758 41.14988708496094 45.37702178955078 43.26345443725586 43.26345825195312 C 45.37702178955078 41.1498908996582 47.03596496582031 38.68975830078125 48.19419097900391 35.95141220092773 C 49.39243316650391 33.11843490600586 50 30.10674667358398 50 27.00000190734863 C 50 23.89325714111328 49.39243316650391 20.88156890869141 48.19419097900391 18.04859161376953 C 47.03596496582031 15.31024551391602 45.37702178955078 12.85011291503906 43.26345443725586 10.73654556274414 C 41.14988708496094 8.622978210449219 38.68975448608398 6.964035034179688 35.95140838623047 5.805812835693359 C 33.11843109130859 4.607566833496094 30.10674476623535 4.000003814697266 27 4.000003814697266 M 27 3.814697265625e-06 C 41.91168975830078 3.814697265625e-06 54 12.08831405639648 54 27.00000190734863 C 54 41.91168975830078 41.91168975830078 54 27 54 C 12.08831024169922 54 0 41.91168975830078 0 27.00000190734863 C 0 12.08831405639648 12.08831024169922 3.814697265625e-06 27 3.814697265625e-06 Z" stroke="none" fill="#628a5f"/>
  </g>
  <g id="_9137063671548233621" data-name="9137063671548233621" transform="translate(10.696 9.664)">
    <g id="Group_66" data-name="Group 66" transform="translate(4.88)">
      <path id="Path_17" data-name="Path 17" d="M165.575,122.75a11.375,11.375,0,1,1,11.375-11.375A11.391,11.391,0,0,1,165.575,122.75Zm0-19.508a8.121,8.121,0,1,0,8.121,8.121A8.133,8.133,0,0,0,165.575,103.241Z" transform="translate(-154.2 -100)" fill="#628a5f" stroke="#628a5f" stroke-width="2"/>
    </g>
    <g id="Group_67" data-name="Group 67" transform="translate(0 19.496)">
      <path id="Path_18" data-name="Path 18" d="M145.61,282.038h-3.253c0-7.87-5.83-14.268-13-14.268s-13,6.4-13,14.268H113.1c0-9.838,7.29-17.838,16.255-17.838S145.61,272.2,145.61,282.038Z" transform="translate(-113.1 -264.2)" fill="#628a5f" stroke="#628a5f" stroke-width="2"/>
    </g>
  </g>
</svg>
