<svg id="User_icon_-_active_grøn" data-name="User icon - active grøn" xmlns="http://www.w3.org/2000/svg" width="52.826" height="52.826" viewBox="0 0 52.826 52.826">
  <g id="Path_30" data-name="Path 30" transform="translate(0 0)" fill="#628a5f">
    <path d="M 26.41317749023438 50.82634353637695 C 23.11653709411621 50.82634353637695 19.91957664489746 50.1811408996582 16.91108703613281 48.90865325927734 C 14.00421714782715 47.67915344238281 11.39316749572754 45.91860198974609 9.150457382202148 43.6758918762207 C 6.907747268676758 41.43318176269531 5.14718770980835 38.8221321105957 3.91768741607666 35.91526031494141 C 2.64519739151001 32.90677261352539 1.999997496604919 29.70981216430664 1.999997496604919 26.41317176818848 C 1.999997496604919 23.11653137207031 2.64519739151001 19.91957092285156 3.91768741607666 16.91108131408691 C 5.14718770980835 14.00421142578125 6.907747268676758 11.39316177368164 9.150457382202148 9.15045166015625 C 11.39316749572754 6.907741546630859 14.00421714782715 5.147192001342773 16.91108703613281 3.917691707611084 C 19.91957664489746 2.645201683044434 23.11653709411621 2.000001668930054 26.41317749023438 2.000001668930054 C 29.70981788635254 2.000001668930054 32.90678787231445 2.645201683044434 35.91527938842773 3.917691707611084 C 38.82214736938477 5.147192001342773 41.43319702148438 6.907741546630859 43.67590713500977 9.15045166015625 C 45.91861724853516 11.39316177368164 47.67916870117188 14.00421142578125 48.90866851806641 16.91108131408691 C 50.18115615844727 19.91957092285156 50.82635879516602 23.11653137207031 50.82635879516602 26.41317176818848 C 50.82635879516602 29.70981216430664 50.18115615844727 32.90677261352539 48.90866851806641 35.91526031494141 C 47.67916870117188 38.8221321105957 45.91861724853516 41.43318176269531 43.67590713500977 43.6758918762207 C 41.43319702148438 45.91860198974609 38.82214736938477 47.67915344238281 35.91527938842773 48.90865325927734 C 32.90678787231445 50.1811408996582 29.70981788635254 50.82634353637695 26.41317749023438 50.82634353637695 Z" stroke="none"/>
    <path d="M 26.41317749023438 3.999992370605469 C 23.38565444946289 3.999992370605469 20.45082092285156 4.592037200927734 17.69018936157227 5.759693145751953 C 15.02172088623047 6.888359069824219 12.62434387207031 8.504981994628906 10.56466674804688 10.56465911865234 C 8.504989624023438 12.62434005737305 6.88836669921875 15.0217170715332 5.759700775146484 17.69018173217773 C 4.592044830322266 20.4508171081543 4 23.38564872741699 4 26.41317176818848 C 4 29.44069480895996 4.592044830322266 32.37552642822266 5.759700775146484 35.13616180419922 C 6.88836669921875 37.80462646484375 8.504989624023438 40.20199584960938 10.56466674804688 42.26167297363281 C 12.62434387207031 44.32135009765625 15.02172088623047 45.93797302246094 17.69018936157227 47.0666389465332 C 20.45082092285156 48.23429489135742 23.38565444946289 48.82633972167969 26.41317749023438 48.82633972167969 C 29.44070053100586 48.82633972167969 32.37554168701172 48.23429489135742 35.13617706298828 47.0666389465332 C 37.80464553833008 45.93797302246094 40.20201110839844 44.32135009765625 42.26168823242188 42.26167297363281 C 44.32136535644531 40.20199584960938 45.93798828125 37.80462646484375 47.06665420532227 35.13616180419922 C 48.23431015014648 32.37552642822266 48.82635498046875 29.44069480895996 48.82635498046875 26.41317176818848 C 48.82635498046875 23.38564872741699 48.23431015014648 20.4508171081543 47.06665420532227 17.69018173217773 C 45.93798828125 15.0217170715332 44.32136535644531 12.62434005737305 42.26168823242188 10.56465911865234 C 40.20201110839844 8.504981994628906 37.80464553833008 6.888359069824219 35.13616561889648 5.759693145751953 C 32.37554168701172 4.592037200927734 29.44070053100586 3.999992370605469 26.41317749023438 3.999992370605469 M 26.41317749023438 -7.62939453125e-06 C 41.00077819824219 -7.62939453125e-06 52.82635498046875 11.82558441162109 52.82635498046875 26.41317176818848 C 52.82635498046875 41.00076293945312 41.00077819824219 52.82633972167969 26.41317749023438 52.82633972167969 C 11.82558822631836 52.82633972167969 0 41.00076293945312 0 26.41317176818848 C 0 11.82558441162109 11.82558822631836 -7.62939453125e-06 26.41317749023438 -7.62939453125e-06 Z" stroke="none" fill="#628a5f"/>
  </g>
  <g id="_9137063671548233621" data-name="9137063671548233621" transform="translate(10.111 8.491)">
    <g id="Group_66" data-name="Group 66" transform="translate(4.88)">
      <path id="Path_17" data-name="Path 17" d="M165.575,122.75a11.375,11.375,0,1,1,11.375-11.375A11.391,11.391,0,0,1,165.575,122.75Zm0-19.508a8.121,8.121,0,1,0,8.121,8.121A8.133,8.133,0,0,0,165.575,103.241Z" transform="translate(-154.2 -100)" fill="#8cc588" stroke="#8cc588" stroke-width="2"/>
    </g>
    <g id="Group_67" data-name="Group 67" transform="translate(0 19.496)">
      <path id="Path_18" data-name="Path 18" d="M145.61,282.038h-3.253c0-7.87-5.83-14.268-13-14.268s-13,6.4-13,14.268H113.1c0-9.838,7.29-17.838,16.255-17.838S145.61,272.2,145.61,282.038Z" transform="translate(-113.1 -264.2)" fill="#8cc588" stroke="#8cc588" stroke-width="2"/>
    </g>
  </g>
  <g id="Path_76" data-name="Path 76" fill="none">
    <path d="M26.413,0A26.413,26.413,0,1,1,0,26.413,26.413,26.413,0,0,1,26.413,0Z" stroke="none"/>
    <path d="M 26.41317749023438 3.999992370605469 C 23.38565444946289 3.999992370605469 20.45082092285156 4.592037200927734 17.69018936157227 5.759693145751953 C 15.02172088623047 6.888359069824219 12.62434387207031 8.504981994628906 10.56466674804688 10.56465911865234 C 8.504989624023438 12.62434005737305 6.88836669921875 15.0217170715332 5.759700775146484 17.69018173217773 C 4.592044830322266 20.4508171081543 4 23.38564872741699 4 26.41317176818848 C 4 29.44069480895996 4.592044830322266 32.37552642822266 5.759700775146484 35.13616180419922 C 6.88836669921875 37.80462646484375 8.504989624023438 40.20199584960938 10.56466674804688 42.26167297363281 C 12.62434387207031 44.32135009765625 15.02172088623047 45.93797302246094 17.69018936157227 47.0666389465332 C 20.45082092285156 48.23429489135742 23.38565444946289 48.82633972167969 26.41317749023438 48.82633972167969 C 29.44070053100586 48.82633972167969 32.37554168701172 48.23429489135742 35.13617706298828 47.0666389465332 C 37.80464553833008 45.93797302246094 40.20201110839844 44.32135009765625 42.26168823242188 42.26167297363281 C 44.32136535644531 40.20199584960938 45.93798828125 37.80462646484375 47.06665420532227 35.13616180419922 C 48.23431015014648 32.37552642822266 48.82635498046875 29.44069480895996 48.82635498046875 26.41317176818848 C 48.82635498046875 23.38564872741699 48.23431015014648 20.4508171081543 47.06665420532227 17.69018173217773 C 45.93798828125 15.0217170715332 44.32136535644531 12.62434005737305 42.26168823242188 10.56465911865234 C 40.20201110839844 8.504981994628906 37.80464553833008 6.888359069824219 35.13616561889648 5.759693145751953 C 32.37554168701172 4.592037200927734 29.44070053100586 3.999992370605469 26.41317749023438 3.999992370605469 M 26.41317749023438 -7.62939453125e-06 C 41.00077819824219 -7.62939453125e-06 52.82635498046875 11.82558441162109 52.82635498046875 26.41317176818848 C 52.82635498046875 41.00076293945312 41.00077819824219 52.82633972167969 26.41317749023438 52.82633972167969 C 11.82558822631836 52.82633972167969 0 41.00076293945312 0 26.41317176818848 C 0 11.82558441162109 11.82558822631836 -7.62939453125e-06 26.41317749023438 -7.62939453125e-06 Z" stroke="none" fill="#628a5f"/>
  </g>
</svg>
