<svg id="Workout_icon_-_active_grøn" data-name="Workout icon - active grøn" xmlns="http://www.w3.org/2000/svg" width="80" height="53" viewBox="0 0 80 53">
  <g id="Rectangle_71" data-name="Rectangle 71" fill="#628a5f" stroke="#628a5f" stroke-width="4">
    <rect width="80" height="53" rx="26.5" stroke="none"/>
    <rect x="2" y="2" width="76" height="49" rx="24.5" fill="none"/>
  </g>
  <g id="Gym" transform="translate(6.518 6.518)">
    <path id="Path_11" data-name="Path 11" d="M59.662,15.691H57.489V13.518A6.518,6.518,0,0,0,50.971,7H44.453a4.345,4.345,0,0,0-4.345,4.345v8.691H27.072V11.345A4.345,4.345,0,0,0,22.727,7H16.209a6.518,6.518,0,0,0-6.518,6.518v2.173H7.518A6.518,6.518,0,0,0,1,22.209V30.9a6.518,6.518,0,0,0,6.518,6.518H9.691V39.59a6.518,6.518,0,0,0,6.518,6.518h6.518a4.345,4.345,0,0,0,4.345-4.345V33.072H40.108v8.691a4.345,4.345,0,0,0,4.345,4.345h6.518a6.518,6.518,0,0,0,6.518-6.518V37.417h2.173A6.518,6.518,0,0,0,66.18,30.9V22.209a6.518,6.518,0,0,0-6.518-6.518ZM7.518,33.072A2.173,2.173,0,0,1,5.345,30.9V22.209a2.173,2.173,0,0,1,2.173-2.173H9.691V33.072Zm8.691,8.691a2.173,2.173,0,0,1-2.173-2.173V13.518a2.173,2.173,0,0,1,2.173-2.173h6.518V41.763ZM27.072,28.727V24.381H40.108v4.345ZM53.144,39.59a2.173,2.173,0,0,1-2.173,2.173H44.453V11.345h6.518a2.173,2.173,0,0,1,2.173,2.173ZM61.834,30.9a2.173,2.173,0,0,1-2.173,2.173H57.489V20.036h2.173a2.173,2.173,0,0,1,2.173,2.173Z" transform="translate(-1 -7)" fill="#8cc588"/>
  </g>
</svg>
