<svg xmlns="http://www.w3.org/2000/svg" width="54" height="54" viewBox="0 0 54 54">
  <g id="billed_knap" data-name="billed knap" transform="translate(-46.867 -715.867)">
    <g id="Ellipse_28" data-name="Ellipse 28" transform="translate(46.867 715.867)" fill="none" stroke="#013c2b" stroke-width="3">
      <circle cx="27" cy="27" r="27" stroke="none"/>
      <circle cx="27" cy="27" r="25.5" fill="none"/>
    </g>
    <g id="_72109600716313443204150" data-name="72109600716313443204150" transform="translate(57.868 727.867)">
      <path id="Path_42" data-name="Path 42" d="M31.331,2.5H5.464a3.084,3.084,0,0,0-2.094.81A2.672,2.672,0,0,0,2.5,5.26V29.344a2.672,2.672,0,0,0,.87,1.95,3.084,3.084,0,0,0,2.094.81H31.331a3.084,3.084,0,0,0,2.094-.81,2.672,2.672,0,0,0,.87-1.95V5.26a2.672,2.672,0,0,0-.87-1.95,3.084,3.084,0,0,0-2.094-.81ZM5.464,4.005H31.331a1.4,1.4,0,0,1,.953.367,1.212,1.212,0,0,1,.395.887V24.743l-6.736-6.277a.849.849,0,0,0-1.142,0l-4.462,4.16L12.421,15.26a.808.808,0,0,0-.262-.164.858.858,0,0,0-.619,0,.808.808,0,0,0-.262.164L4.117,21.928V5.26a1.212,1.212,0,0,1,.395-.887,1.4,1.4,0,0,1,.953-.367ZM4.117,29.344V24.055l7.733-7.2L26.61,30.6H5.464a1.4,1.4,0,0,1-.953-.367,1.212,1.212,0,0,1-.395-.887ZM31.331,30.6H28.9l-7.421-6.909,3.891-3.628,7.313,6.809v2.474a1.212,1.212,0,0,1-.395.887,1.4,1.4,0,0,1-.953.367Z" transform="translate(-2.5 -2.5)" fill="#013c2b" stroke="#013c2b" stroke-width="1"/>
      <path id="Path_43" data-name="Path 43" d="M29.752,17.964a3.827,3.827,0,1,0-2.7-1.121,3.822,3.822,0,0,0,2.7,1.121Zm0-6.056a2.234,2.234,0,1,1-.855.17,2.234,2.234,0,0,1,.855-.17Z" transform="translate(-14.821 -6.943)" fill="#013c2b" stroke="#013c2b" stroke-width="0.2"/>
    </g>
  </g>
</svg>
