<svg xmlns="http://www.w3.org/2000/svg" width="54.999" height="55.001" viewBox="0 0 54.999 55.001">
  <g id="Calender_icon_2" data-name="Calender icon 2" transform="translate(-10.748 -11.248)">
    <g id="Icons" transform="translate(11.248 11.748)">
      <g id="Outlined">
        <g id="Action">
          <g id="Outlined-_-Action-_-calendar_today" data-name="Outlined-/-Action-/-calendar_today">
            <g id="Group_57" data-name="Group 57">
              <path id="Path" d="M0,0H54V54H0Z" fill="none" fill-rule="evenodd"/>
              <path id="_-Icon-Color" data-name="🔹-Icon-Color" d="M50.6,5.908H47.9V1h-5.4V5.908H15.5V1h-5.4V5.908H7.4A5.187,5.187,0,0,0,2,10.817v39.27A5.187,5.187,0,0,0,7.4,55H50.6A5.187,5.187,0,0,0,56,50.087V10.817a5.187,5.187,0,0,0-5.4-4.908Zm0,44.178H7.4v-27H50.6Zm0-31.9H7.4V10.817H50.6Z" transform="translate(-2 -1)" fill="#013c2b" stroke="#013c2b" stroke-width="1" fill-rule="evenodd"/>
            </g>
          </g>
        </g>
      </g>
    </g>
  </g>
</svg>
