<svg xmlns="http://www.w3.org/2000/svg" width="54" height="54" viewBox="0 0 54 54">
  <g id="Chat_icon_2" data-name="Chat icon 2" transform="translate(0.198)">
    <g id="Ellipse_4" data-name="Ellipse 4" transform="translate(-0.198)" fill="none" stroke="#013c2b" stroke-width="4">
      <circle cx="27" cy="27" r="27" stroke="none"/>
      <circle cx="27" cy="27" r="25" fill="none"/>
    </g>
    <g id="Icons" transform="translate(11.842 11.53)">
      <g id="Rounded">
        <g id="Action">
          <g id="_-Round-_-Action-_-question_answer" data-name="-Round-/-Action-/-question_answer">
            <g id="Group_44" data-name="Group 44">
              <path id="Path" d="M0,0H30.888V30.887H0Z" fill="none" fill-rule="evenodd"/>
              <path id="_Icon-Color" data-name="🔹Icon-Color" d="M29.8,8.177H28.255V20.532a1.549,1.549,0,0,1-1.544,1.544H8.178V23.62a3.1,3.1,0,0,0,3.089,3.089H26.71l6.178,6.177V11.266A3.1,3.1,0,0,0,29.8,8.177ZM25.166,15.9V5.089A3.1,3.1,0,0,0,22.077,2H5.089A3.1,3.1,0,0,0,2,5.089V25.165l6.178-6.177h13.9A3.1,3.1,0,0,0,25.166,15.9Z" transform="translate(-2 -2)" fill="#013c2b" fill-rule="evenodd"/>
            </g>
          </g>
        </g>
      </g>
    </g>
  </g>
</svg>
