<svg xmlns="http://www.w3.org/2000/svg" width="54" height="54" viewBox="0 0 54 54">
  <g id="Data_icon_2" data-name="Data icon 2" transform="translate(-0.282)">
    <g id="Ellipse_23" data-name="Ellipse 23" transform="translate(0.282)" fill="none" stroke="#013c2b" stroke-width="3">
      <circle cx="27" cy="27" r="27" stroke="none"/>
      <circle cx="27" cy="27" r="25.5" fill="none"/>
    </g>
    <g id="_7642394031535694872" data-name="7642394031535694872" transform="translate(12.28 12)">
      <g id="Group_93" data-name="Group 93" transform="translate(0 0)">
        <path id="Path_33" data-name="Path 33" d="M34.956,34.011H8.491V7.545a1.045,1.045,0,0,0-2.091,0V35.056A1.034,1.034,0,0,0,7.445,36.1H34.956a1.045,1.045,0,1,0,0-2.091Z" transform="translate(-6.4 -6.5)" fill="#013c2b" stroke="#013c2b" stroke-width="2"/>
        <path id="Path_34" data-name="Path 34" d="M47.893,51.588V36.545a.907.907,0,1,0-1.793,0V51.588a.907.907,0,1,0,1.793,0Z" transform="translate(-35.978 -28.106)" fill="#013c2b" stroke="#013c2b" stroke-width="2"/>
        <path id="Path_35" data-name="Path 35" d="M28.093,51.588V36.545a.907.907,0,1,0-1.793,0V51.588a.907.907,0,1,0,1.793,0Z" transform="translate(-21.226 -28.106)" fill="#013c2b" stroke="#013c2b" stroke-width="2"/>
        <path id="Path_36" data-name="Path 36" d="M87.493,51.588V36.545a.907.907,0,1,0-1.793,0V51.588a.907.907,0,1,0,1.793,0Z" transform="translate(-65.481 -28.106)" fill="#013c2b" stroke="#013c2b" stroke-width="2"/>
        <path id="Path_37" data-name="Path 37" d="M107.293,73.567V66.045a.907.907,0,1,0-1.793,0v7.521a.907.907,0,1,0,1.793,0Z" transform="translate(-80.233 -50.084)" fill="#013c2b" stroke="#013c2b" stroke-width="2"/>
        <path id="Path_38" data-name="Path 38" d="M67.693,73.567V66.045a.907.907,0,1,0-1.793,0v7.521a.907.907,0,1,0,1.793,0Z" transform="translate(-50.73 -50.084)" fill="#013c2b" stroke="#013c2b" stroke-width="2"/>
      </g>
    </g>
  </g>
</svg>
