<svg id="Data_icon_3" data-name="Data icon 3" xmlns="http://www.w3.org/2000/svg" width="54" height="54" viewBox="0 0 54 54">
  <g id="Rounded" transform="translate(0)">
    <g id="Action">
      <g id="_-Round-_-Action-_-assessment" data-name="-Round-/-Action-/-assessment">
        <g id="Group_95" data-name="Group 95">
          <path id="_Icon-Color" data-name="🔹Icon-Color" d="M51,3H9A6.018,6.018,0,0,0,3,9V51a6.018,6.018,0,0,0,6,6H51a6.018,6.018,0,0,0,6-6V9A6.018,6.018,0,0,0,51,3ZM18,45a3.009,3.009,0,0,1-3-3V27a3,3,0,0,1,6,0V42A3.009,3.009,0,0,1,18,45Zm12,0a3.009,3.009,0,0,1-3-3V18a3,3,0,1,1,6,0V42A3.009,3.009,0,0,1,30,45Zm12,0a3.009,3.009,0,0,1-3-3V36a3,3,0,0,1,6,0v6A3.009,3.009,0,0,1,42,45Z" transform="translate(-3 -3)" fill="#013c2b" fill-rule="evenodd"/>
        </g>
      </g>
    </g>
  </g>
</svg>
