<svg xmlns="http://www.w3.org/2000/svg" width="54" height="54" viewBox="0 0 54 54">
  <g id="Doc_icon_2" data-name="Doc icon 2" transform="translate(-1015 -902)">
    <g id="_706955771543238882" data-name="706955771543238882" transform="translate(1029.001 912)">
      <path id="Path_44" data-name="Path 44" d="M20.627,2H7.325A3.325,3.325,0,0,0,4,5.325v26.6a3.325,3.325,0,0,0,3.325,3.325H27.278A3.325,3.325,0,0,0,30.6,31.929V11.976Z" transform="translate(-4 -2)" fill="none" stroke="#013c2b" stroke-linecap="round" stroke-linejoin="round" stroke-width="3"/>
      <path id="Path_45" data-name="Path 45" d="M14,2v9.976h9.976" transform="translate(2.627 -2)" fill="none" stroke="#013c2b" stroke-linecap="round" stroke-linejoin="round" stroke-width="3"/>
      <line id="Line_52" data-name="Line 52" x1="13.176" transform="translate(6.902 18.196)" fill="none" stroke="#013c2b" stroke-linecap="round" stroke-linejoin="round" stroke-width="3"/>
      <line id="Line_53" data-name="Line 53" x1="13.176" transform="translate(6.902 25.098)" fill="none" stroke="#013c2b" stroke-linecap="round" stroke-linejoin="round" stroke-width="3"/>
      <path id="Path_46" data-name="Path 46" d="M11.325,9H8" transform="translate(-1.349 2.639)" fill="none" stroke="#013c2b" stroke-linecap="round" stroke-linejoin="round" stroke-width="3"/>
    </g>
    <g id="Ellipse_42" data-name="Ellipse 42" transform="translate(1015 902)" fill="none" stroke="#013c2b" stroke-width="3">
      <circle cx="27" cy="27" r="27" stroke="none"/>
      <circle cx="27" cy="27" r="25.5" fill="none"/>
    </g>
  </g>
</svg>
