<svg xmlns="http://www.w3.org/2000/svg" width="44.999" height="54" viewBox="0 0 44.999 54">
  <g id="Doc_icon" data-name="Doc icon" transform="translate(0 0.001)">
    <g id="Action" transform="translate(0 -0.001)">
      <g id="_-Round-_-Action-_-note_add" data-name="-Round-/-Action-/-note_add">
        <g id="Group_96" data-name="Group 96">
          <path id="_Icon-Color" data-name="🔹Icon-Color" d="M33.784,3.592A5.764,5.764,0,0,0,29.79,2H9.625A5.532,5.532,0,0,0,4,7.4V50.6A5.507,5.507,0,0,0,9.6,56H43.374A5.532,5.532,0,0,0,49,50.6V20.441a5.2,5.2,0,0,0-1.66-3.806ZM34.937,39.8H29.312v5.4a2.815,2.815,0,0,1-5.625,0V39.8H18.06a2.7,2.7,0,1,1,0-5.4h5.625V29a2.815,2.815,0,0,1,5.625,0v5.4h5.625a2.7,2.7,0,1,1,0,5.4ZM29.312,18.2V6.05L44.78,20.9H32.12a2.766,2.766,0,0,1-2.808-2.7Z" transform="translate(-4 -1.999)" fill="#013c2b" fill-rule="evenodd"/>
        </g>
      </g>
    </g>
  </g>
</svg>
