<svg xmlns="http://www.w3.org/2000/svg" width="54" height="54" viewBox="0 0 54 54">
  <g id="Document_icon" data-name="Document icon" transform="translate(-1015 -902)">
    <g id="_706955771543238882" data-name="706955771543238882" transform="translate(1030 914)">
      <path id="Path_44" data-name="Path 44" d="M18.626,2H6.925A2.925,2.925,0,0,0,4,4.925v23.4A2.925,2.925,0,0,0,6.925,31.25H24.476A2.925,2.925,0,0,0,27.4,28.327V10.776Z" transform="translate(-4 -2)" fill="none" stroke="#013c2b" stroke-linecap="round" stroke-linejoin="round" stroke-width="3"/>
      <path id="Path_45" data-name="Path 45" d="M14,2v8.776h8.776" transform="translate(0.626 -2)" fill="none" stroke="#013c2b" stroke-linecap="round" stroke-linejoin="round" stroke-width="3"/>
      <line id="Line_52" data-name="Line 52" x1="11.59" transform="translate(6.071 16.006)" fill="none" stroke="#013c2b" stroke-linecap="round" stroke-linejoin="round" stroke-width="3"/>
      <line id="Line_53" data-name="Line 53" x1="11.59" transform="translate(6.071 22.077)" fill="none" stroke="#013c2b" stroke-linecap="round" stroke-linejoin="round" stroke-width="3"/>
      <path id="Path_46" data-name="Path 46" d="M10.925,9H8" transform="translate(-2.15 1.238)" fill="none" stroke="#013c2b" stroke-linecap="round" stroke-linejoin="round" stroke-width="3"/>
    </g>
    <g id="Ellipse_42" data-name="Ellipse 42" transform="translate(1015 902)" fill="none" stroke="#013c2b" stroke-width="4">
      <circle cx="27" cy="27" r="27" stroke="none"/>
      <circle cx="27" cy="27" r="25" fill="none"/>
    </g>
  </g>
</svg>
