<svg xmlns="http://www.w3.org/2000/svg" width="54" height="54" viewBox="0 0 54 54">
  <g id="Home_icon_-_active" data-name="Home icon - active" transform="translate(0.431)">
    <g id="Ellipse_21" data-name="Ellipse 21" transform="translate(-0.431)" fill="#013c2b" stroke="#013c2b" stroke-width="4">
      <circle cx="27" cy="27" r="27" stroke="none"/>
      <circle cx="27" cy="27" r="25" fill="none"/>
    </g>
    <g id="Page-1" transform="translate(12.312 8.814)">
      <g id="Dribbble-Light-Preview">
        <g id="icons">
          <path id="home-_1393_" data-name="home-[#1393]" d="M310.9,588.224c0,.961-.829,1.372-1.849,1.372H307.2c-1.02,0-1.849-.411-1.849-1.372v-1.741a3.913,3.913,0,0,0-3.7-3.851h-3.7a3.912,3.912,0,0,0-3.7,3.851v1.741c0,.961-.83,1.372-1.851,1.372h-1.85c-1.022,0-1.851-.411-1.851-1.372V574.187a.849.849,0,0,1,.27-.616l9.5-8.941a1.932,1.932,0,0,1,2.617,0l9.538,8.976a.849.849,0,0,1,.27.615Zm3.7-14.949a1.7,1.7,0,0,0-.538-1.229l-11.652-11.02a3.867,3.867,0,0,0-5.235-.01l-11.627,10.907a1.7,1.7,0,0,0-.543,1.233v16.81c0,1.924,1.656,3.113,3.7,3.113h5.55c2.044,0,3.7-1.189,3.7-3.113v-1.741a1.853,1.853,0,0,1,3.7,0v1.741c0,1.924,1.654,3.113,3.7,3.113H310.9c2.044,0,3.7-1.189,3.7-3.113Z" transform="translate(-285.005 -560)" fill="#eee" fill-rule="evenodd"/>
        </g>
      </g>
    </g>
  </g>
</svg>
