<svg xmlns="http://www.w3.org/2000/svg" width="30" height="30" viewBox="0 0 30 30">
  <g id="img_icon_-_hvid" data-name="img icon - hvid" transform="translate(-1148 -911)">
    <g id="_72109600716313443204150" data-name="72109600716313443204150" transform="translate(1155.222 918.222)">
      <path id="Path_42" data-name="Path 42" d="M17.109,2.5H4A1.5,1.5,0,0,0,2.5,4V17.109a1.5,1.5,0,0,0,1.5,1.5H17.109a1.5,1.5,0,0,0,1.5-1.5V4a1.5,1.5,0,0,0-1.5-1.5ZM4,3.319H17.109A.683.683,0,0,1,17.792,4v10.6l-3.413-3.416a.409.409,0,0,0-.579,0l-2.261,2.264L7.527,9.444a.407.407,0,0,0-.579,0L3.319,13.073V4A.683.683,0,0,1,4,3.319Zm-.683,13.79V14.231l3.919-3.919,7.479,7.479H4a.683.683,0,0,1-.683-.683Zm13.79.683H15.875l-3.76-3.76,1.972-1.974,3.706,3.706v1.346a.683.683,0,0,1-.683.683Z" transform="translate(-2.5 -2.5)" fill="#f2f1ed" stroke="#f2f1ed" stroke-width="1"/>
      <path id="Path_43" data-name="Path 43" d="M27.9,14.263a1.974,1.974,0,1,0-1.393-.578,1.972,1.972,0,0,0,1.393.578Zm0-3.124a1.152,1.152,0,1,1-.441.088,1.152,1.152,0,0,1,.441-.088Z" transform="translate(-19.532 -8.185)" fill="#f2f1ed"/>
    </g>
    <g id="Ellipse_43" data-name="Ellipse 43" transform="translate(1148 911)" fill="none" stroke="#f2f1ed" stroke-width="2">
      <circle cx="15" cy="15" r="15" stroke="none"/>
      <circle cx="15" cy="15" r="14" fill="none"/>
    </g>
  </g>
</svg>
