<svg xmlns="http://www.w3.org/2000/svg" width="54.003" height="54" viewBox="0 0 54.003 54">
  <path id="pencil" d="M37.242,2.968a7.307,7.307,0,0,1,10.333,0l5.289,5.289a7.307,7.307,0,0,1,0,10.333l-34.106,34.1a7.307,7.307,0,0,1-5.166,2.14H3.435A2.435,2.435,0,0,1,1,52.392V42.233a7.306,7.306,0,0,1,2.14-5.166Zm6.889,3.445a2.435,2.435,0,0,0-3.445,0l-4.575,4.575,8.733,8.733,4.575-4.575a2.435,2.435,0,0,0,0-3.445ZM41.4,23.166l-8.733-8.733L6.585,40.51a2.435,2.435,0,0,0-.713,1.723v7.724H13.6a2.435,2.435,0,0,0,1.722-.713Z" transform="translate(-1 -0.828)" fill="#013c2b" fill-rule="evenodd"/>
</svg>
