<svg xmlns="http://www.w3.org/2000/svg" width="34.642" height="54" viewBox="0 0 34.642 54">
  <g id="Profil_ikon" data-name="Profil ikon" transform="translate(0.493)">
    <g id="Rectangle_132" data-name="Rectangle 132" transform="translate(-0.493 22)">
      <path id="Path_78" data-name="Path 78" d="M15.283,0h4.075A15.143,15.143,0,0,1,34.642,15V26a6.057,6.057,0,0,1-6.113,6H6.113A6.057,6.057,0,0,1,0,26V15A15.143,15.143,0,0,1,15.283,0Z" fill="#013c2b"/>
      <path id="Path_79" data-name="Path 79" d="M15.282.5H19.36A14.643,14.643,0,0,1,34.142,15V26a5.554,5.554,0,0,1-5.607,5.5H6.107A5.554,5.554,0,0,1,.5,26V15A14.643,14.643,0,0,1,15.282.5Z" fill="none" stroke="#013c2b" stroke-width="1"/>
    </g>
    <g id="Ellipse_24" data-name="Ellipse 24" transform="translate(7.507)" fill="#013c2b" stroke="#013c2b" stroke-width="1">
      <ellipse cx="9.821" cy="9.5" rx="9.821" ry="9.5" stroke="none"/>
      <ellipse cx="9.821" cy="9.5" rx="9.321" ry="9" fill="none"/>
    </g>
  </g>
</svg>
