<svg xmlns="http://www.w3.org/2000/svg" width="54" height="54" viewBox="0 0 54 54">
  <g id="Question_icon" data-name="Question icon" transform="translate(-0.459)">
    <g id="Ellipse_8" data-name="Ellipse 8" transform="translate(0.459)" fill="none" stroke="#013c2b" stroke-width="4">
      <circle cx="27" cy="27" r="27" stroke="none"/>
      <circle cx="27" cy="27" r="25" fill="none"/>
    </g>
    <g id="_4062282711617448424" data-name="4062282711617448424" transform="translate(13.783 6.598)">
      <path id="Path_23" data-name="Path 23" d="M0,0H26.393V40.591H0Z" transform="translate(0.001)" fill="none"/>
      <path id="Path_24" data-name="Path 24" d="M19.2,36.5a3.054,3.054,0,1,1,0,6.089,3.054,3.054,0,1,1,0-6.089ZM19.2,2c7.281,0,13.183,5.451,13.183,12.177,0,4.394-1.654,6.677-5.875,9.991s-4.967,6.517-5.11,8.274-4.319,1.884-4.394,0,1.729-7.5,6.659-11.367c3.333-2.616,4.326-3.988,4.326-6.9,0-4.485-3.933-8.118-8.788-8.118s-8.314,2.569-8.788,8.118c0,0-.118,1.782-.9,2.03a3.689,3.689,0,0,1-2.575,0c-1.2-.362-.92-2.03-.92-2.03C6.016,7.451,11.917,2,19.2,2Z" transform="translate(-5.987 -2)" fill="#013c2b"/>
    </g>
  </g>
</svg>
