<svg xmlns="http://www.w3.org/2000/svg" width="54" height="54" viewBox="0 0 54 54">
  <g id="Send" transform="translate(-315 -713)">
    <g id="Ellipse_30" data-name="Ellipse 30" transform="translate(315 713)" fill="#fff" stroke="#013c2b" stroke-width="3">
      <circle cx="27" cy="27" r="27" stroke="none"/>
      <circle cx="27" cy="27" r="25.5" fill="none"/>
    </g>
    <path id="_2705012341582806319" data-name="2705012341582806319" d="M30.5,5.719A1.46,1.46,0,0,0,28.588,3.8L4.672,13.923a1.46,1.46,0,0,0,.144,2.742l7.6,2.312a4.384,4.384,0,0,1,.612.238l7.452-7.452a1.46,1.46,0,1,1,2.065,2.065L15.091,21.28a4.388,4.388,0,0,1,.238.613l2.312,7.6a1.46,1.46,0,0,0,2.742.144Zm-3.052-4.6a4.381,4.381,0,0,1,5.742,5.742L23.073,30.773a4.381,4.381,0,0,1-8.226-.432l-2.312-7.6a1.46,1.46,0,0,0-.972-.972l-7.6-2.312a4.381,4.381,0,0,1-.431-8.226Z" transform="translate(322.14 724.245)" fill="#013c2b" fill-rule="evenodd"/>
  </g>
</svg>
