<svg xmlns="http://www.w3.org/2000/svg" width="54" height="54" viewBox="0 0 54 54">
  <g id="settings_icon" data-name="settings icon" transform="translate(0.001 0)">
    <g id="Action" transform="translate(-0.001 0)">
      <g id="_-Round-_-Action-_-settings" data-name="-Round-/-Action-/-settings">
        <g id="Group_97" data-name="Group 97">
          <path id="_Icon-Color" data-name="🔹Icon-Color" d="M49.894,31.649A20.48,20.48,0,0,0,50.088,29a20.48,20.48,0,0,0-.194-2.649L55.75,21.9a1.337,1.337,0,0,0,.333-1.732l-5.551-9.342a1.414,1.414,0,0,0-1.692-.594l-6.911,2.7a20.42,20.42,0,0,0-4.69-2.649L36.184,3.134A1.342,1.342,0,0,0,34.823,2h-11.1a1.342,1.342,0,0,0-1.36,1.134l-1.055,7.155a21.473,21.473,0,0,0-4.69,2.649l-6.911-2.7a1.371,1.371,0,0,0-1.692.594L2.463,20.171A1.308,1.308,0,0,0,2.8,21.9l5.856,4.447A20.842,20.842,0,0,0,8.458,29a20.841,20.841,0,0,0,.194,2.649L2.8,36.1a1.337,1.337,0,0,0-.333,1.732l5.549,9.338a1.414,1.414,0,0,0,1.692.594l6.911-2.7a20.42,20.42,0,0,0,4.69,2.649l1.055,7.154A1.343,1.343,0,0,0,23.723,56h11.1a1.342,1.342,0,0,0,1.36-1.134l1.055-7.154a21.473,21.473,0,0,0,4.69-2.649l6.911,2.7a1.371,1.371,0,0,0,1.692-.594l5.554-9.339a1.337,1.337,0,0,0-.333-1.732Zm-20.621,6.8A9.452,9.452,0,1,1,38.987,29a9.538,9.538,0,0,1-9.715,9.453Z" transform="translate(-2.27 -2)" fill="#013c2b" fill-rule="evenodd"/>
        </g>
      </g>
    </g>
  </g>
</svg>
