<svg id="trash_can" data-name="trash can" xmlns="http://www.w3.org/2000/svg" width="46.588" height="54" viewBox="0 0 46.588 54">
  <path id="Path_77" data-name="Path 77" d="M0,0H38.588V36a5.189,5.189,0,0,1-5.359,5H5.359A5.189,5.189,0,0,1,0,36Z" transform="translate(4 13)" fill="#013c2b"/>
  <rect id="Rectangle_317" data-name="Rectangle 317" width="4" height="29" rx="2" transform="translate(29.812 19)" fill="#f2f1ed"/>
  <rect id="Rectangle_318" data-name="Rectangle 318" width="4" height="29" rx="2" transform="translate(12.776 19)" fill="#f2f1ed"/>
  <path id="Path_62" data-name="Path 62" d="M2,0A2,2,0,0,1,4,2V27a2,2,0,1,1-4,0V2A2,2,0,0,1,2,0Z" transform="translate(21.294 19)" fill="#f2f1ed"/>
  <rect id="Rectangle_320" data-name="Rectangle 320" width="4" height="46.588" rx="2" transform="translate(46.588 8.511) rotate(90)" fill="#013c2b"/>
  <g id="Rectangle_321" data-name="Rectangle 321" transform="translate(13.294)">
    <path id="Path_80" data-name="Path 80" d="M6,0h8a6,6,0,0,1,6,6v5H0V6A6,6,0,0,1,6,0Z" fill="none"/>
    <path id="Path_81" data-name="Path 81" d="M6,1.5h8A4.5,4.5,0,0,1,18.5,6V9.5H1.5V6A4.5,4.5,0,0,1,6,1.5Z" fill="none" stroke="#013c2b" stroke-width="3"/>
  </g>
</svg>
