<svg id="User_icon_-_active" data-name="User icon - active" xmlns="http://www.w3.org/2000/svg" width="54" height="54" viewBox="0 0 54 54">
  <g id="Path_30" data-name="Path 30" transform="translate(0 0)">
    <path id="Path_82" data-name="Path 82" d="M27,52A25.007,25.007,0,0,1,17.27,3.964,25.007,25.007,0,0,1,36.73,50.036,24.843,24.843,0,0,1,27,52Z" transform="translate(0 0)" fill="#013c2b"/>
    <path id="Path_83" data-name="Path 83" d="M27,4.089a22.918,22.918,0,0,0-8.917,44.023A22.918,22.918,0,0,0,35.917,5.888,22.764,22.764,0,0,0,27,4.089M27,0A27,27,0,1,1,0,27,27,27,0,0,1,27,0Z" transform="translate(0 0)" fill="#013c2b"/>
  </g>
  <g id="_9137063671548233621" data-name="9137063671548233621" transform="translate(10.695 9.665)">
    <g id="Group_66" data-name="Group 66" transform="translate(4.88)">
      <path id="Path_17" data-name="Path 17" d="M165.575,122.75a11.375,11.375,0,1,1,11.375-11.375A11.375,11.375,0,0,1,165.575,122.75Zm0-19.508a8.121,8.121,0,1,0,8.121,8.121,8.121,8.121,0,0,0-8.121-8.121Z" transform="translate(-154.2 -100)" fill="#eee" stroke="#eee" stroke-width="2"/>
    </g>
    <g id="Group_67" data-name="Group 67" transform="translate(0 19.496)">
      <path id="Path_18" data-name="Path 18" d="M145.61,282.038h-3.253c0-7.87-5.83-14.268-13-14.268s-13,6.4-13,14.268H113.1c0-9.838,7.29-17.838,16.255-17.838S145.61,272.2,145.61,282.038Z" transform="translate(-113.1 -264.2)" fill="#eee" stroke="#eee" stroke-width="2"/>
    </g>
  </g>
  <g id="Path_76" data-name="Path 76" transform="translate(0 0)">
    <path id="Path_84" data-name="Path 84" d="M27,0A27,27,0,1,1,0,27,27,27,0,0,1,27,0Z" transform="translate(0 0)" fill="none"/>
    <path id="Path_85" data-name="Path 85" d="M27,4.089a22.918,22.918,0,0,0-8.917,44.023A22.918,22.918,0,0,0,35.917,5.888,22.764,22.764,0,0,0,27,4.089M27,0A27,27,0,1,1,0,27,27,27,0,0,1,27,0Z" transform="translate(0 0)" fill="#013c2b"/>
  </g>
</svg>
