<svg id="User_icon" data-name="User icon" xmlns="http://www.w3.org/2000/svg" width="54" height="54" viewBox="0 0 54 54">
  <g id="Path_30" data-name="Path 30" transform="translate(0)">
    <path id="Path_86" data-name="Path 86" d="M27,0A27,27,0,1,1,0,27,27,27,0,0,1,27,0Z" transform="translate(0)" fill="none"/>
    <path id="Path_87" data-name="Path 87" d="M27,4a23.007,23.007,0,0,0-8.951,44.194,23.007,23.007,0,0,0,17.9-42.388A22.853,22.853,0,0,0,27,4m0-4A27,27,0,1,1,0,27,27,27,0,0,1,27,0Z" transform="translate(0)" fill="#013c2b"/>
  </g>
  <g id="_9137063671548233621" data-name="9137063671548233621" transform="translate(10.696 9.664)">
    <g id="Group_66" data-name="Group 66" transform="translate(4.88)">
      <path id="Path_17" data-name="Path 17" d="M165.575,122.75a11.375,11.375,0,1,1,11.375-11.375A11.375,11.375,0,0,1,165.575,122.75Zm0-19.508a8.121,8.121,0,1,0,8.121,8.121,8.121,8.121,0,0,0-8.121-8.121Z" transform="translate(-154.2 -100)" fill="#013c2b" stroke="#013c2b" stroke-width="2"/>
    </g>
    <g id="Group_67" data-name="Group 67" transform="translate(0 19.496)">
      <path id="Path_18" data-name="Path 18" d="M145.61,282.038h-3.253c0-7.87-5.83-14.268-13-14.268s-13,6.4-13,14.268H113.1c0-9.838,7.29-17.838,16.255-17.838S145.61,272.2,145.61,282.038Z" transform="translate(-113.1 -264.2)" fill="#013c2b" stroke="#013c2b" stroke-width="2"/>
    </g>
  </g>
</svg>
