<svg xmlns="http://www.w3.org/2000/svg" width="54" height="54" viewBox="0 0 54 54">
  <g id="Weights" transform="translate(0.192)">
    <g id="Ellipse_13" data-name="Ellipse 13" transform="translate(-0.192)" fill="none" stroke="#013c2b" stroke-width="4">
      <circle cx="27" cy="27" r="27" stroke="none"/>
      <circle cx="27" cy="27" r="25" fill="none"/>
    </g>
    <path id="_101823807116297301073942" data-name="101823807116297301073942" d="M34.186,6.21H9.213a2.956,2.956,0,0,0-2.123.908A3.151,3.151,0,0,0,6.21,9.31V35.089a3.151,3.151,0,0,0,.88,2.192,2.956,2.956,0,0,0,2.123.908H34.186a2.956,2.956,0,0,0,2.123-.908,3.151,3.151,0,0,0,.88-2.192V9.31a3.187,3.187,0,0,0-.229-1.186,3.109,3.109,0,0,0-.651-1.006,3,3,0,0,0-.974-.672,2.922,2.922,0,0,0-1.149-.236ZM31.543,18.436a.63.63,0,0,1-.176.438.591.591,0,0,1-.425.182H28.486a.591.591,0,0,1-.425-.182.634.634,0,0,1,0-.877.591.591,0,0,1,.425-.182h2.456a.591.591,0,0,1,.425.182A.63.63,0,0,1,31.543,18.436ZM15.82,10.159H27.58a1.518,1.518,0,0,1,1.025.5,1.625,1.625,0,0,1,0,2.173,1.518,1.518,0,0,1-1.025.5H15.82a1.518,1.518,0,0,1-1.025-.5,1.625,1.625,0,0,1,0-2.173A1.518,1.518,0,0,1,15.82,10.159Zm-3.363,7.657h2.456a.591.591,0,0,1,.425.182.634.634,0,0,1,0,.877.591.591,0,0,1-.425.182H12.456a.591.591,0,0,1-.425-.182.634.634,0,0,1,0-.877.591.591,0,0,1,.425-.182ZM14.913,34.11H12.456a.591.591,0,0,1-.425-.182.634.634,0,0,1,0-.877.591.591,0,0,1,.425-.182h2.456a.591.591,0,0,1,.425.182.634.634,0,0,1,0,.877.591.591,0,0,1-.424.182Zm2.456-3.763H10.006a.591.591,0,0,1-.425-.182.634.634,0,0,1,0-.877.591.591,0,0,1,.425-.182h7.363a.591.591,0,0,1,.425.182.634.634,0,0,1,0,.877.591.591,0,0,1-.425.181ZM10.84,25.964a.63.63,0,0,1,.176-.438.591.591,0,0,1,.425-.182h4.493a.591.591,0,0,1,.425.182.634.634,0,0,1,0,.877.591.591,0,0,1-.425.182H11.441a.591.591,0,0,1-.425-.182.63.63,0,0,1-.175-.44Zm6.529-3.143H10.006a.591.591,0,0,1-.425-.182.634.634,0,0,1,0-.877.591.591,0,0,1,.425-.182h7.363a.591.591,0,0,1,.425.182.634.634,0,0,1,0,.877.591.591,0,0,1-.425.181ZM30.943,34.11H28.486a.591.591,0,0,1-.425-.182.634.634,0,0,1,0-.877.591.591,0,0,1,.425-.182h2.456a.591.591,0,0,1,.425.182.634.634,0,0,1,0,.877.591.591,0,0,1-.424.182Zm2.45-3.763H26.03a.591.591,0,0,1-.425-.182.634.634,0,0,1,0-.877.591.591,0,0,1,.425-.182h7.363a.591.591,0,0,1,.425.182.634.634,0,0,1,0,.877.591.591,0,0,1-.425.181Zm-6.529-4.383a.63.63,0,0,1,.176-.438.591.591,0,0,1,.425-.182h4.493a.591.591,0,0,1,.425.182.634.634,0,0,1,0,.877.591.591,0,0,1-.425.182H27.465a.591.591,0,0,1-.425-.182.63.63,0,0,1-.175-.44Zm6.529-3.143H26.03a.591.591,0,0,1-.425-.182.634.634,0,0,1,0-.877.591.591,0,0,1,.425-.182h7.363a.591.591,0,0,1,.425.182.634.634,0,0,1,0,.877.591.591,0,0,1-.425.181Z" transform="translate(5.688 5.028)" fill="#013c2b"/>
  </g>
</svg>
