<svg xmlns="http://www.w3.org/2000/svg" width="54" height="54" viewBox="0 0 54 54">
  <g id="Working_out" data-name="Working out" transform="translate(0 0.001)">
    <path id="Path_80" data-name="Path 80" d="M25.637,266.324a2.468,2.468,0,0,0,4.935,0v-.042H25.639C25.639,266.3,25.637,266.31,25.637,266.324Z" transform="translate(-20.577 -214.792)" fill="#013c2b"/>
    <path id="Path_81" data-name="Path 81" d="M226.637,266.324a2.468,2.468,0,1,0,4.935,0v-.042h-4.93A.234.234,0,0,0,226.637,266.324Z" transform="translate(-182.632 -214.792)" fill="#013c2b"/>
    <path id="Path_82" data-name="Path 82" d="M119.557,8.763a4.44,4.44,0,1,0-3.316-5.33,4.44,4.44,0,0,0,3.316,5.33Z" transform="translate(-93.568 0)" fill="#013c2b"/>
    <path id="Path_83" data-name="Path 83" d="M106.761,62.514h2.253a15.753,15.753,0,0,0-2.36-1.36,20.674,20.674,0,0,1,.167-3.987,4.623,4.623,0,0,0,1.678.316h.044a9.9,9.9,0,0,0,5.228-1.931,1.578,1.578,0,0,0-1.716-2.646,7.016,7.016,0,0,1-3.5,1.422,1.31,1.31,0,0,1-.938-.322,1.45,1.45,0,0,1-.215-.223c.135-.678.269-1.322.384-1.909.566-1.964-.175-4.315-1.859-4.735a3.22,3.22,0,0,0-.382-.07,1.57,1.57,0,0,0-1.573.148,4.454,4.454,0,0,0-1.876,1.155c.44,0,.852.014,1.216.032.737.038,1.27.094,1.408.107a1.979,1.979,0,0,1,1.726,1.688,1.945,1.945,0,0,1,.019.322.921.921,0,0,1-.012.179,1.974,1.974,0,0,1-1.958,1.74,2.007,2.007,0,0,1-.235-.014l-.152-.016c-.107-.011-.271-.026-.472-.041h-.114c-.368-.025-.887-.051-1.447-.051a12.828,12.828,0,0,0-1.856.12c-.085.306-.163.607-.233.9a18.894,18.894,0,0,0,2.575,2.36,1.973,1.973,0,0,1-2.447,3.1c-.23-.182-.447-.359-.66-.536a32.117,32.117,0,0,0,.232,3.219,6.161,6.161,0,0,0,.291,1.034h6.785Z" transform="translate(-80.184 -37.912)" fill="#013c2b"/>
    <path id="Path_84" data-name="Path 84" d="M86.155,66.327a1.579,1.579,0,0,0,.98-2.817,21.03,21.03,0,0,1-2.439-2.2q-.248-.27-.429-.5a3.855,3.855,0,0,1-.492-.77,1.4,1.4,0,0,1-.052-.133,3.277,3.277,0,0,1,.986-.322c.139-.027.29-.049.443-.07a13.866,13.866,0,0,1,1.739-.1c.514,0,.993.021,1.378.046l.215.015c.2.015.369.03.481.041l.16.017a1.579,1.579,0,0,0,.374-3.126c-.027,0-.579-.069-1.395-.107-.362-.018-.775-.031-1.216-.031h-.322a12.288,12.288,0,0,0-3.306.429,4.518,4.518,0,0,0-1.756.944,2.911,2.911,0,0,0-.966,2.162,4.913,4.913,0,0,0,1.246,2.954,17.679,17.679,0,0,0,2.485,2.483c.285.241.585.488.909.745a1.573,1.573,0,0,0,.977.34Z" transform="translate(-64.904 -45.422)" fill="#013c2b"/>
    <path id="Path_85" data-name="Path 85" d="M73.922,158.138a2.468,2.468,0,0,0,3.278-1.194,108.04,108.04,0,0,0,6.178-16.462c.231.12.463.252.69.394A6.207,6.207,0,0,1,85.73,142.3a2.339,2.339,0,0,1,.536,1.469,3.946,3.946,0,0,1-.578,1.881,13.432,13.432,0,0,1-2.575,3.147,2.467,2.467,0,1,0,3.4,3.578,18.215,18.215,0,0,0,3.508-4.354,8.839,8.839,0,0,0,1.18-4.252,7.206,7.206,0,0,0-1.129-3.855H78.409a104.669,104.669,0,0,1-5.686,14.944,2.468,2.468,0,0,0,1.2,3.278Z" transform="translate(-58.476 -113.107)" fill="#013c2b"/>
    <path id="Path_86" data-name="Path 86" d="M.584,110.512H53.416A.588.588,0,0,0,54,109.92v-4.145a.588.588,0,0,0-.584-.592H50.884L43.139,80.475a.553.553,0,0,0-.424-.373l4.829-5.989a.285.285,0,0,0-.039-.4l-1.148-.95a.275.275,0,0,0-.391.04l-8.7,10.8H12.658a4.9,4.9,0,0,0-4.87,4.935v16.648H.584a.588.588,0,0,0-.584.592v4.145a.588.588,0,0,0,.584.59ZM20.065,85.574H40.243l6.147,19.609H9.74V88.535a2.946,2.946,0,0,1,2.921-2.961Z" transform="translate(0 -59.416)" fill="#013c2b"/>
  </g>
</svg>
