<svg id="Workout_icon_-_active" data-name="Workout icon - active" xmlns="http://www.w3.org/2000/svg" width="80" height="54" viewBox="0 0 80 54">
  <g id="Rectangle_71" data-name="Rectangle 71" fill="#013c2b" stroke="#013c2b" stroke-width="4">
    <rect width="80" height="54" rx="26.5" stroke="none"/>
    <rect x="2" y="2" width="76" height="50" rx="24.5" fill="none"/>
  </g>
  <g id="Gym" transform="translate(6.518 6.518)">
    <path id="Path_11" data-name="Path 11" d="M59.662,15.913H57.489V13.685A6.6,6.6,0,0,0,50.971,7H44.453a4.4,4.4,0,0,0-4.345,4.456v8.913H27.072V11.456A4.4,4.4,0,0,0,22.727,7H16.209a6.6,6.6,0,0,0-6.518,6.685v2.229H7.518A6.6,6.6,0,0,0,1,22.6v8.913A6.6,6.6,0,0,0,7.518,38.2H9.691v2.228a6.6,6.6,0,0,0,6.518,6.685h6.518a4.4,4.4,0,0,0,4.345-4.456V33.739H40.108v8.913a4.4,4.4,0,0,0,4.345,4.456h6.518a6.6,6.6,0,0,0,6.518-6.685V38.195h2.173a6.6,6.6,0,0,0,6.518-6.684V22.6a6.6,6.6,0,0,0-6.518-6.685ZM7.518,33.739a2.2,2.2,0,0,1-2.173-2.228V22.6a2.2,2.2,0,0,1,2.173-2.229H9.691V33.739Zm8.691,8.913a2.2,2.2,0,0,1-2.173-2.229V13.685a2.2,2.2,0,0,1,2.173-2.229h6.518v31.2ZM27.072,29.283V24.825H40.108v4.456ZM53.144,40.423a2.2,2.2,0,0,1-2.173,2.229H44.453v-31.2h6.518a2.2,2.2,0,0,1,2.173,2.229Zm8.69-8.912a2.2,2.2,0,0,1-2.173,2.229H57.489V20.369h2.173A2.2,2.2,0,0,1,61.835,22.6Z" transform="translate(-1 -7)" fill="#eee"/>
  </g>
</svg>
